<?xml version="1.0" encoding="UTF-8" standalone="no"?>
<!--part of the rodentia icon theme by sixsixfive released under CC0 (https://creativecommons.org/publicdomain/zero/1.0/) on openclipart-->
<svg xmlns="http://www.w3.org/2000/svg" xmlns:xlink="http://www.w3.org/1999/xlink" viewBox="0 0 48 48">
 <defs id="0">
  <linearGradient id="8">
   <stop id="I" stop-color="#fff"/>
   <stop id="J" offset="1" stop-color="#fff" stop-opacity="0"/>
  </linearGradient>
  <linearGradient id="9">
   <stop id="K" stop-color="#d3d7cf"/>
   <stop id="L" offset="1" stop-color="#eeeeec"/>
  </linearGradient>
  <linearGradient id="A">
   <stop id="M" stop-color="#fff" stop-opacity="0.5"/>
   <stop id="N" offset="1" stop-color="#fff" stop-opacity="0"/>
  </linearGradient>
  <linearGradient id="B">
   <stop id="O" stop-color="#2e3436"/>
   <stop id="P" offset="1" stop-color="#2e3436" stop-opacity="0"/>
  </linearGradient>
  <linearGradient id="C">
   <stop id="Q" stop-color="#eee"/>
   <stop id="R" offset="1" stop-color="#dcdcdc"/>
  </linearGradient>
  <radialGradient cx="60.05" cy="51.39" r="15.03" id="D" xlink:href="#C" gradientUnits="userSpaceOnUse" gradientTransform="matrix(-1.404511,1.1888571,-1,-1.1813958,199.73811,11.750541)"/>
  <radialGradient cx="25.02" cy="44.3" r="16.727" id="E" xlink:href="#B" gradientUnits="userSpaceOnUse" gradientTransform="matrix(1,0,0,0.1150442,0,39.202918)"/>
  <linearGradient y1="5.265" x2="0" y2="42.603" id="F" xlink:href="#A" gradientUnits="userSpaceOnUse"/>
  <linearGradient x1="-0.976" y1="-16.755" x2="21.561" y2="25.22" id="G" xlink:href="#8" gradientUnits="userSpaceOnUse" gradientTransform="matrix(1.1085072,0,0,1.1085072,-2.6041729,-3.9347351)"/>
  <radialGradient cx="24.822" cy="44.19" r="18.679" id="H" xlink:href="#9" gradientUnits="userSpaceOnUse" gradientTransform="matrix(1.6325081,-2.1297414,1.656393,1.2696731,-88.80939,41.281337)"/>
 </defs>
 <path d="m 41.743937,44.299297 a 16.727181,1.9243659 0 1 1 -33.4543614,0 16.727181,1.9243659 0 1 1 33.4543614,0 z" transform="matrix(1.1085072,0,0,1.620126,-3.7312544,-27.388157)" id="1" opacity="0.8" fill="url(#E)"/>
 <path d="m 24,0.71875 c -12.123062,0 -21.9383572,9.81571 -21.9375,21.9375 C 2.0616428,34.77804 11.877322,44.624999 24,44.625 36.122678,44.625 45.938358,34.778041 45.9375,22.65625 45.938357,10.534459 36.123062,0.71874999 24,0.71875 z" id="2" fill="#183768"/>
 <path d="M 22.75,5.375 C 8.615336,5.6267023 0.00192621,23.952757 8.9375,35.0625 L 8.90625,35.09375 C 17.018382,47.079005 37.344698,44.11383 41.5625,30.25 l 0.03125,0 c 0.0076,-0.01959 -0.0075,-0.0429 0,-0.0625 C 46.258402,17.976792 35.858956,4.2337465 22.8125,5.375 c -0.02148,0.00188 -0.041,-0.00196 -0.0625,0 z" transform="matrix(1.1085072,0,0,1.1085072,-2.6041729,-3.9347351)" id="3" fill="#3465a4"/>
 <path d="m 24.034641,1.9542094 c -0.44579,0.00786 -0.899053,0.029748 -1.350993,0.069282 -0.02381,0.00208 -0.04545,-0.00217 -0.06928,0 -0.128502,0.00229 -0.253378,0.029673 -0.381049,0.034641 0.01731,0.2606901 0.09208,0.5290802 0.277126,0.7274578 -0.04415,-0.047314 0.06939,0.058018 0.173205,0.1385634 0.228411,0.1772219 0.557894,0.199146 0.900662,0.2078451 0.182771,0.3557715 0.536601,0.5916576 0.935303,0.6235353 0.07967,0.051682 0.134008,0.087951 0.277126,0.1385634 0.0628,0.022207 0.1871,-0.045312 0.277127,-0.034641 0.04462,0.1902536 0.01,0.3901123 0.207845,0.5888944 0.165176,0.1659762 0.414094,0.1987914 0.658176,0.242486 -0.197357,0.1074968 -0.372272,0.223869 -0.41569,0.2771267 -0.133315,0.1558854 -0.133288,0.3759557 -0.173204,0.5888945 -0.01288,0.0029 -0.02172,-0.00334 -0.03464,0 -0.05428,0.014007 -0.08368,-0.056649 -0.138563,-0.034641 -0.271673,0.1089334 -0.433153,0.2828424 -0.484972,0.3464086 -0.01423,0.016645 0.01317,0.051672 0,0.069282 -0.197392,0.1075093 -0.372279,0.2238775 -0.41569,0.2771267 -0.328676,0.3843186 -0.304778,0.9984014 -0.06928,1.4549158 -0.08613,0.057438 -0.121508,0.034884 -0.277127,0.2078451 -0.06007,0.066769 -0.105517,0.261805 -0.173204,0.4156901 -0.01817,0.018087 -0.01794,0.049757 -0.03464,0.069282 -0.02672,0.077815 -0.092,0.068694 -0.103922,0.1732042 -0.0031,0.027361 0.03514,0.04147 0.03464,0.069282 -0.0898,0.176808 -0.166822,0.3475325 -0.173204,0.5542536 -4.84e-4,0.015694 -0.03464,0.018936 -0.03464,0.034641 -0.0035,0.0034 0.0044,0.029549 0,0.034641 -0.01525,0.01782 -0.03772,0.0096 -0.06928,0.069282 -0.0021,0.00395 0.0024,0.030144 0,0.034641 -0.02245,0.061793 -0.130673,0.07903 -0.138564,0.1385633 -0.0044,0.033215 0.0021,0.038495 0,0.069282 -0.187467,0.2109489 -0.399436,0.3782448 -0.484972,0.7620986 -0.0274,0.12294 0.06463,0.192191 0.06928,0.311768 -0.04896,-0.03616 -0.100557,-0.149596 -0.138563,-0.173204 -0.01934,-0.01202 -0.06401,-0.06862 -0.242486,-0.138564 -0.178476,-0.06995 -0.562599,-0.09749 -0.79674,-0.03464 -0.170027,0.04564 -0.15559,0.222678 -0.277127,0.311768 -0.05525,-0.102246 -0.06615,-0.204206 -0.173204,-0.311768 -0.284088,-0.2853783 -0.827695,-0.3442656 -0.935303,-0.3464083 -0.02848,-8.092e-4 0.0053,-0.00169 -0.03464,0 -0.113044,-0.00321 -0.230222,-0.00355 -0.41569,0.069282 -0.400715,0.1573323 -0.60797,0.4227513 -0.727458,0.7274573 0.09507,-0.268313 0.144492,-0.670728 -0.03464,-1.039225 -0.170103,-0.3499213 -0.415567,-0.3933449 -0.623535,-0.4849718 -0.08502,-0.1490799 0.0015,-0.2954948 -0.346408,-0.4503311 -0.478959,-0.2131748 -0.806762,-0.07212 -0.900663,-0.034641 -0.0897,0.020722 -0.111528,0.02899 -0.03464,0 -0.06921,0.015772 -0.223963,0.047407 -0.450331,0.1385633 -0.07154,0.028809 -0.166212,0.041964 -0.242486,0.069282 0.137662,-0.3746101 0.07217,-0.7937466 -0.173205,-1.1085073 -0.006,-0.040191 0.0087,-0.1013297 0,-0.1385633 -0.02264,-0.096909 -0.07027,-0.095702 -0.103922,-0.1732043 0.129054,-0.1083122 0.297419,-0.2415537 0.381049,-0.5196127 0.01516,-0.050394 -0.0071,-0.086656 0,-0.1385635 0.175852,-0.055057 0.395549,-0.049713 0.519613,-0.1732042 0.450936,-0.4488954 0.444644,-1.3892936 0,-1.835965 -0.08003,-0.080393 -0.243852,-0.00982 -0.346409,-0.069282 -0.02874,-0.034797 5.8e-5,-0.069065 -0.03464,-0.1039226 -0.0043,-0.00431 -0.03026,0.00459 -0.03464,0 0.150903,-0.460479 0.151319,-1.024983 -0.173205,-1.3509931 -0.0176,-0.017684 -0.05049,-0.017892 -0.06928,-0.034641 -4.448462,1.7377928 -8.0542169,5.1416022 -10.3576144,9.3183886 0.010116,0.01425 0.023633,0.02011 0.034641,0.03464 -0.00213,0.179859 -0.014057,0.372061 0.1039225,0.588895 0.00821,0.01508 0.025648,0.01994 0.034641,0.03464 0.012632,0.04885 0.010007,0.07968 0.034641,0.138563 0.0305,0.0729 0.1380519,0.207142 0.1385634,0.207845 5.115e-4,7.03e-4 0.2418471,0.241995 0.2424859,0.242486 4.651e-4,3.57e-4 0.1033346,0.06391 0.2078451,0.103922 0.123836,0.171758 0.2598187,0.305819 0.4156903,0.450332 0.3339802,0.30964 0.6636981,0.573477 1.0392255,0.762098 0.2278536,0.114448 0.5140314,0.113215 0.7967395,0.138564 0.1233392,0.107289 0.2047779,0.232029 0.3464085,0.277126 0.2904267,0.09248 0.5146156,0.07004 0.6581757,0.03464 0.287121,-0.07079 0.393265,-0.177171 0.484972,-0.242486 0.183414,-0.130628 0.270638,-0.22313 0.381049,-0.346408 0.110412,-0.123278 0.212407,-0.255498 0.311768,-0.41569 0.04968,-0.0801 0.122132,-0.146769 0.173204,-0.277127 0.05107,-0.130358 0.130443,-0.307724 0.06928,-0.692817 -0.01957,-0.123234 -0.07316,-0.213065 -0.103923,-0.311768 -0.0077,0.07125 0.01563,0.168973 -0.103922,0.346409 0.06945,-0.125481 0.09037,-0.242086 0.103922,-0.346409 0.0025,-0.02339 -7.17e-4,-0.04852 0,-0.06928 3.6e-4,-0.01038 2.22e-4,-0.02444 0,-0.03464 0.0084,-0.06003 0.09948,-0.157627 0.103923,-0.207845 0.0045,-0.05039 -4.09e-4,-0.09253 0,-0.138564 0.03698,-0.06993 0.07187,-0.145095 0.138563,-0.242486 0.03905,-0.05702 0.06823,-0.09336 0.103923,-0.138563 0.03138,-0.01155 0.07503,-0.02252 0.103922,-0.03464 0.173332,-0.07274 0.299355,-0.168838 0.450331,-0.277127 0.337003,-0.241719 0.560067,-0.65406 0.692817,-1.108507 0.09656,-0.07769 0.191078,-0.171709 0.277127,-0.277127 0.01819,-0.0042 0.06838,-0.02425 0.277127,-0.06928 0.224263,-0.04838 0.39377,-0.210756 0.588895,-0.277126 -0.01483,0.06354 0.0017,0.127627 0,0.207845 -2.8e-4,0.01337 -2.33e-4,0.02081 0,0.03464 -0.01232,0.0227 -0.02387,0.04581 -0.03464,0.06928 -0.08048,0.340897 -0.0077,0.693823 0.207845,0.969944 0.21551,0.276123 0.550426,0.445603 0.900662,0.450331 l 0.06928,0 c 0.251946,0.173028 0.427611,0.209982 0.588894,0.242486 0.322567,0.06501 0.635897,0.06644 0.969944,0 0.444677,-0.08844 0.473275,-0.171897 0.658176,-0.277127 0.184901,-0.105229 0.370137,-0.250194 0.554254,-0.381049 0.351162,-0.249576 0.621822,-0.365902 0.900662,-0.83138 0.01859,-0.03103 0.05069,-0.06333 0.06928,-0.103923 -0.05006,0.154631 0.05516,0.338627 0.06928,0.519613 9.27e-4,0.01188 -0.0012,0.02274 0,0.03464 0.01558,0.151894 -0.02144,0.307979 0,0.450331 -0.03641,-0.0962 -0.06387,-0.178282 -0.06928,-0.277127 -0.03548,0.389484 0.03109,0.792064 0.277127,1.039225 0.0334,0.03356 0.07028,0.0065 0.103923,0.03464 -0.0035,0.04542 -0.06931,0.09477 -0.06928,0.138564 8.4e-5,0.115297 0.105992,0.256969 0.138563,0.381049 -7.68e-4,0.02232 -0.03466,0.04738 -0.03464,0.06928 1.07e-4,0.146431 0.114813,0.325321 0.173204,0.484972 -0.02333,0.04643 -0.07779,0.120968 -0.06928,0.103922 -0.04037,0.08083 -0.03828,0.232287 -0.06928,0.346409 -0.09564,0.09334 -0.197794,0.106681 -0.277126,0.346408 -0.06637,0.200568 0.06043,0.32331 0.103922,0.519613 -0.0026,0.03288 -0.06493,0.109434 -0.06928,0.138563 -0.02445,0.16359 -0.04362,0.280774 -0.03464,0.41569 0.009,0.134917 0.02956,0.241029 0.103922,0.450331 0.03718,0.104652 0.06141,0.251214 0.242486,0.450332 0.181073,0.199117 0.725734,0.452027 1.177789,0.346408 6.04e-4,-1.41e-4 0.166766,-0.05044 0.207845,-0.06928 0.04108,-0.01884 0.04937,-0.02351 0.06928,-0.03464 0.01195,-0.0067 0.02577,0.0053 0.03464,0 0.04194,0.03795 0.09591,0.07421 0.138563,0.103922 0.03105,0.02163 0.03912,0.08728 0.06928,0.103923 0.0055,0.02229 0.02827,0.01358 0.03464,0.03464 0.102953,0.340574 0.237696,0.544486 0.41569,0.658177 -0.06887,0.01546 -0.143269,0.01782 -0.207845,0.03464 -0.152162,0.03963 -0.157975,-0.04975 -0.588895,0.242486 -0.354247,0.240246 -0.480541,0.617675 -0.519613,0.831381 -0.03907,0.213706 -0.01505,0.36409 0,0.484972 0.0301,0.241763 0.06909,0.417569 0.138564,0.623535 0.01872,0.05549 0.06042,0.137998 0.06928,0.207845 -0.119666,0.587467 0.08649,1.090339 0.381049,1.454916 0.142398,0.176244 0.349961,0.36262 0.588894,0.484972 -0.178044,0.220592 -0.3519,0.433749 -0.41569,0.727458 -0.04661,-0.0693 1.15e-4,-0.13813 -0.06928,-0.207846 -0.139048,-0.139683 -0.326777,-0.412944 -1.004584,-0.346408 -0.230357,0.02261 -0.297321,0.05534 -0.381049,0.103922 -0.02201,0.0088 -0.01409,0.02492 -0.03464,0.03464 -0.232927,0.110177 -0.402711,0.25336 -0.450331,0.311768 -0.36785,0.4301 -0.337884,1.176535 0,1.62812 -0.157242,0.309593 -0.167039,0.628858 -0.06928,0.969944 -0.01963,0.366272 0.03691,0.76328 0.277127,1.004584 0.136704,0.137367 0.358051,0.11967 0.554253,0.173205 -0.0083,0.131162 -0.04538,0.270115 -0.03464,0.381049 0.03702,0.382457 0.135072,0.738026 0.277127,1.281711 0.0114,0.04364 -0.0097,0.02827 0,0.06928 -0.295328,-0.07668 -0.637586,-0.06382 -0.796739,0 0.0043,-0.0017 -0.05019,0.01005 -0.103923,0.03464 -0.02623,0.012 -0.125533,0.115748 -0.173204,0.138563 -0.166972,-0.006 -0.27261,-0.175193 -0.450331,-0.103922 -0.271658,0.108927 -0.433152,0.282842 -0.484972,0.346408 -0.397729,0.465086 -0.392016,1.338075 0.03464,1.766684 0.180586,0.181456 0.457675,0.207122 0.727458,0.242486 0.04234,0.0591 0.01018,0.113836 0.06928,0.173204 0.41246,0.41443 0.911045,0.370517 1.177789,0.311768 0.266745,-0.05875 0.46994,-0.124567 0.692817,-0.346409 0.03366,-0.03351 0.006,-0.100297 0.03464,-0.138563 0.06808,0.04569 0.165347,0.184295 0.207845,0.207845 0.0094,0.0059 0.02621,0.05973 0.03464,0.06928 0.06928,0.07851 0.104816,0.143736 0.173204,0.207846 0.136777,0.128218 0.314121,0.249868 0.484972,0.381049 0.09997,0.07676 0.171802,0.169852 0.207845,0.207845 0.14864,0.386873 0.389723,0.638306 0.623536,0.83138 0.328516,0.271276 0.700307,0.469592 1.143148,0.623536 0.286901,0.09973 0.570303,0.242467 1.004584,0.207845 0.434281,-0.03462 0.701327,-0.191086 0.935303,-0.311768 0.05989,-0.03089 0.222297,-0.108226 0.311768,-0.138563 0.436553,-0.0073 0.573789,-0.10892 0.796739,-0.207845 0.222951,-0.09893 0.444509,-0.205939 0.658177,-0.346409 0.09523,-0.06261 0.213761,-0.116437 0.311767,-0.173204 -0.05013,0.150141 -0.173305,0.313135 -0.173204,0.450331 9.1e-5,0.124536 0.09931,0.281112 0.138563,0.41569 -0.150881,0.460483 -0.151283,1.025029 0.173205,1.350993 0.416539,0.418546 1.225286,0.387858 1.697401,0.03464 0.05307,0.04416 0.0883,0.140308 0.138564,0.173204 0.04415,0.0289 0.144477,0.135471 0.207845,0.207846 0.03168,0.03619 0.07978,0.05213 0.06928,0.03464 0.04495,0.07807 0.07243,0.267899 0.103923,0.311768 0.06935,0.0966 0.155049,0.155239 0.207845,0.207845 0.07229,0.07203 0.133203,0.115684 0.207845,0.173204 0.05027,0.197679 0.08949,0.379921 0.207845,0.623536 -0.08379,0.386393 -0.105142,0.824073 -0.103922,1.281711 0.0016,0.585 0.261272,1.3145 0.588894,1.732043 0.358884,0.457374 0.42182,0.565368 0.623536,1.108507 0.178059,0.479426 0.390131,0.8791 0.623535,1.24707 3.7163,-1.59765 6.976598,-4.230712 9.110543,-7.794191 -0.06378,1.61e-4 -0.121925,-0.0049 -0.173204,-0.03464 -0.04661,-0.0693 1.15e-4,-0.13813 -0.06928,-0.207845 -0.05304,-0.05329 -0.290038,-0.06856 -0.381049,-0.138563 -0.05694,-0.0572 -0.173722,-0.02206 -0.242486,-0.06928 0.0076,0.0021 0.112843,0.004 0.103923,0 -0.01861,-0.0084 -0.05178,-0.04354 -0.138564,-0.06928 -0.04339,-0.01287 -0.109814,-0.02521 -0.173204,-0.03464 -0.02113,-0.0031 -0.03742,0.0018 -0.06928,0 -0.05986,-2.8e-4 -0.03405,-0.0415 -0.103922,-0.03464 -0.03859,0.0038 -0.03545,-0.0058 -0.06928,0 -0.01457,-0.286205 -0.06928,-0.59349 -0.242486,-0.79674 0.02742,-0.275111 -0.05206,-0.527236 -0.173204,-0.762099 0.137813,-0.311649 0.268887,-0.672212 0.346408,-0.762098 0.289601,-0.335799 0.527959,-0.695262 0.727458,-1.143148 0.215843,-0.484595 0.391593,-1.054069 0.519613,-1.62812 0.06401,-0.287026 0.10261,-0.574004 0.138563,-0.831381 0.02035,-0.145685 0.02775,-0.307626 0.03464,-0.450331 0.134934,-0.05502 0.316442,-0.03978 0.41569,-0.138563 0.450876,-0.448882 0.444648,-1.389284 0,-1.835965 -0.04001,-0.0402 -0.1272,8.57e-4 -0.173204,-0.03464 0.171675,-0.190889 0.341444,-0.393461 0.484972,-0.588894 0.110996,-0.151135 0.185576,-0.287351 0.277127,-0.450332 0.04578,-0.08149 0.110681,-0.12755 0.173204,-0.381049 0.0013,-0.0052 -0.0015,-0.02913 0,-0.03464 0.04482,-0.06701 0.08994,-0.106145 0.138564,-0.207845 0.04397,-0.09196 0.110813,-0.206569 0.138563,-0.450331 0.0034,-0.02972 -0.0682,-0.09903 -0.06928,-0.138563 0.0082,-0.01655 -0.0089,-0.05682 0,-0.06928 -0.02368,-0.156288 -0.16893,-0.319778 -0.277127,-0.519613 0.02677,-0.0053 0.04186,-0.02906 0.06928,-0.03464 0.04447,0.08496 0.15658,0.18146 0.173204,0.242486 0.04291,0.157518 0.04045,0.239387 0.03464,0.311768 0.02513,-0.03531 0.07797,-0.03945 0.103923,-0.138563 0.02499,-0.09544 -0.08915,-0.263408 -0.103923,-0.415691 0.30762,-0.05954 0.523509,-0.102498 0.450331,-0.103922 0.288187,0.189964 0.550912,0.374739 1.039226,0.381049 0.06095,0.0051 0.113078,-0.03016 0.173204,-0.03464 C 44.49072,14.475786 39.791591,7.4518187 33.075903,4.0673013 32.969971,4.176014 32.868863,4.3137231 32.764135,4.4483506 32.659323,4.4136163 32.562012,4.3753974 32.452367,4.3444281 32.210929,4.2762329 31.964895,4.2118033 31.724909,4.1712238 c -0.119992,-0.02029 -0.32465,0.011988 -0.450331,0 -0.236639,-0.1231679 -0.505745,-0.2501437 -0.762098,-0.2424859 -0.05443,0.00163 -0.08867,0.029336 -0.138564,0.034641 -0.01946,-0.018256 -0.06909,-0.069174 -0.06928,-0.069282 -0.0011,-6.207e-4 -0.200385,-0.084405 -0.277127,-0.1039225 -0.153483,-0.039034 -0.249313,-0.034626 -0.311768,-0.034641 -0.10409,-2.54e-5 -0.134778,-0.00252 -0.173204,0 -0.230791,-0.1149914 -0.484534,-0.1318644 -0.900662,-0.034641 -0.06538,0.015275 -0.13204,0.105658 -0.207845,0.1385634 -0.09731,-0.015975 -0.144871,-0.1144645 -0.242486,-0.1039226 -0.23724,0.025621 -0.316827,0.1272057 -0.450331,0.2078451 -0.169891,0.0099 -0.335497,0.057211 -0.484972,0.1385634 0.09547,-0.1970867 0.20797,-0.4113473 0.207845,-0.5888945 -2e-4,-0.2835966 -0.03031,-0.6177555 -0.346409,-0.9353029 -0.06738,-0.067694 -0.345461,-0.091121 -0.484971,-0.1732043 0.0098,-0.030432 0.02302,6.66e-5 0.03464,-0.034641 0.02908,-0.085859 0.06097,-0.1887007 0.06928,-0.2771268 C 25.852889,1.9826186 24.949699,1.9380671 24.034641,1.9542094 z m 3.949057,2.2170144 c -0.06861,0.054789 -0.164799,0.097597 -0.242486,0.1385634 0.03308,-0.031378 0.01128,-0.06217 0.06928,-0.1039226 0.03779,-0.027205 0.123034,-0.010444 0.173205,-0.034641 z m -0.623536,0.450331 c -3.22e-4,-3e-7 0.0984,0.023657 0.173205,0.034641 -0.219429,-0.035587 -0.389822,0.020071 -0.554254,0.069282 0.01027,-0.012495 0.02458,-0.024018 0.03464,-0.034641 0.04473,-0.017005 0.103974,-0.034651 0.103922,-0.034641 -1.71e-4,3.48e-5 0.24271,-0.034641 0.242486,-0.034641 z m 0.242486,0.034641 c 0.103896,0.022358 0.14192,0.022337 0.173205,0.034641 -0.0019,0.01032 0.0016,0.024406 0,0.034641 -0.06113,-0.026436 -0.117589,-0.056399 -0.173205,-0.069282 z m -8.452367,1.2124298 c -0.130375,0.00936 -0.27979,0.049426 -0.41569,0.1039225 -0.271692,0.1089371 -0.433163,0.2828525 -0.484972,0.3464085 -0.03093,0.03617 -0.0088,0.098046 -0.03464,0.1385634 -0.0805,0.067735 -0.216577,0.14142 -0.242486,0.1732042 -0.397747,0.4650879 -0.392009,1.3380824 0.03464,1.7666834 0.44896,0.4511336 1.389326,0.4445657 1.835965,0 0.08457,-0.084184 0.0522,-0.1587194 0.103922,-0.2424859 0.04968,-0.034095 0.131023,-0.027296 0.173205,-0.069282 0.450924,-0.4488999 0.444645,-1.3892819 0,-1.835965 C 19.880133,6.008486 19.541405,5.8405415 19.150281,5.8686254 z m -6.200712,1.593479 c 0.163706,0.700754 0.411177,0.6581884 0.519612,0.7274579 0.108436,0.06927 0.169546,0.109566 0.242486,0.1385634 0.145881,0.057994 0.288493,0.079021 0.450332,0.1039225 0.08687,0.013366 0.13729,0.024748 0.207845,0.034641 0.0449,0.0063 0.160336,-0.00335 0.242486,0 -0.04292,0.1153623 -0.0092,0.2176343 -0.138564,0.3464085 -0.03632,0.036158 -0.11837,0.064331 -0.173204,0.1039226 -0.268284,-0.1178211 -0.501204,-0.3115028 -0.519613,-0.3464086 0.08964,0.1699885 0.253825,0.2806541 0.41569,0.4156903 0.0069,0.0058 -0.0071,0.028956 0,0.034641 -0.01058,0.00604 -0.02045,-0.00727 -0.03464,0 -0.0393,0.021748 -0.09794,0.012991 -0.173205,0.034641 -0.06102,0.017554 -0.04948,0.025896 -0.138563,0.034641 -0.07109,0.010267 -0.139007,0.034657 -0.138564,0.034641 6.57e-4,-2.43e-5 -0.180384,0.00924 -0.242486,0 -0.0621,-0.00924 -0.09644,-0.02215 -0.138563,-0.034641 -0.08424,-0.024982 -0.122523,-0.062008 -0.138563,-0.069282 -0.03459,-0.015687 0.275214,0.00492 0.484972,0.034641 C 13.310254,9.0197024 13.066199,8.8954609 12.98421,8.8130977 12.718038,8.5457025 12.707227,8.2903312 12.707083,8.0856398 12.706959,7.9097275 12.771409,7.6864287 12.949569,7.4621045 z M 30.92817,8.4320483 c 0.284759,-0.013299 0.430371,0.09224 0.519613,0.1385634 0.178482,0.092648 0.186837,0.1120668 0.207845,0.1385635 0.0024,0.003 0.0067,0.00607 0.03464,0.069282 0.01395,0.031605 0.04878,0.088385 0.06928,0.2078451 0.0205,0.1194604 0.0742,0.363812 -0.173204,0.7620987 -0.133517,0.2149251 -0.295752,0.329199 -0.450331,0.381049 -0.118113,0.03962 -0.103749,-0.0061 -0.173204,0 -0.20553,0.02737 -0.359882,0.0302 -0.554254,-0.173204 0.01582,0.023217 0.0046,0.01 -0.03464,-0.034641 -0.02617,-0.026646 -0.06754,-0.062483 -0.103922,-0.3810493 -0.02021,-0.176981 0.0039,-0.4708673 0.173204,-0.7274579 0.140806,-0.2134519 0.331743,-0.3137497 0.484972,-0.3810494 z m -7.794191,3.5333667 c 0.04508,0.240855 0.08337,0.510524 0.450331,0.79674 0.243565,0.18997 0.387246,0.116814 0.588894,0.138563 0.01456,0.100658 0.04647,0.190016 0.06928,0.277127 -0.01304,0.0092 -0.02157,0.02473 -0.03464,0.03464 -0.03366,0.006 -0.03339,-0.0091 -0.06928,0 -0.03007,0.0076 -0.0061,0.05911 -0.03464,0.06928 -0.02116,0.0194 -0.04786,0.01279 -0.06928,0.03464 -0.01804,0.0083 -0.01728,0.02543 -0.03464,0.03464 -0.121521,0.06446 -0.154814,0.149621 -0.242486,0.242486 -0.172149,-0.261673 -0.332969,-0.473699 -0.519613,-0.623535 -0.0194,-0.01557 -0.04994,-0.0194 -0.06928,-0.03464 6.76e-4,-0.01568 -2.29e-4,-0.01721 0,-0.03464 0.0015,-0.11592 -0.101057,-0.333096 -0.207845,-0.554254 0.02235,-0.03149 0.122054,-0.0427 0.138564,-0.06928 0.03554,-0.05721 6.14e-4,-0.222714 0.03464,-0.311768 z M 6.4717298,12.866077 c 0.028873,0.04272 0.068721,0.06326 0.1039225,0.103923 -0.00747,-0.05459 -2.331e-4,-0.06255 0,-0.103923 0.01108,0.0049 0.023399,-0.0047 0.034641,0 -0.00647,0.09254 0.022363,0.134376 0.034641,0.207845 -0.00806,-0.03209 -0.065571,-0.07682 -0.069282,-0.103922 0.025574,0.02954 0.00573,0.07646 0.034641,0.103922 -0.024991,-0.02184 -0.045828,-0.0096 -0.069282,-0.03464 -0.063452,-0.06766 -0.028677,-0.104617 -0.069282,-0.173204 z m 33.6709062,0.277127 c 0.302402,-0.02723 0.603128,0.112947 0.727458,0.207845 0.12433,0.0949 0.165981,0.127913 0.173204,0.138563 0.192382,0.283693 0.141402,0.444035 0.138563,0.519613 -0.0028,0.07558 0.0075,0.116951 0,0.138564 -0.0075,0.02161 -0.01575,0.03219 -0.06928,0.103922 -0.05354,0.07173 -0.152222,0.225933 -0.519613,0.311768 -0.307687,0.07188 -0.684687,-0.01994 -0.866021,-0.138564 -0.181334,-0.118619 -0.233067,-0.208146 -0.277127,-0.277126 -0.08812,-0.137961 -0.09884,-0.184305 -0.103923,-0.207846 -0.01017,-0.04708 -0.13063,-0.01699 0.138564,-0.450331 -0.0055,0.0088 0.05337,-0.291953 0.658176,-0.346408 z m -17.077939,0.41569 c 0.0943,-0.02203 0.377181,0.05618 0.588894,0.138564 -0.0104,0.01377 -0.02496,0.02086 -0.03464,0.03464 -0.202641,-0.04063 -0.427277,-0.20287 -0.554254,-0.173204 z m -3.568008,1.039226 c 7.26e-4,0.0048 0.03384,-0.0048 0.03464,0 0.02521,0.152407 0.03887,0.323516 0.103923,0.484972 -0.07309,-0.149095 -0.123022,-0.311552 -0.138564,-0.450332 -10e-4,-0.0091 6.87e-4,-0.02572 0,-0.03464 z M 4.9821732,14.875246 c -1.5852297,3.81468 -2.1332655,8.045927 -1.3509931,12.089657 0.2485472,-0.04443 0.4825667,-0.150665 0.6581761,-0.346408 -0.016639,0.01656 0.010098,-0.04688 0,-0.03464 1.732e-4,-0.01155 1.732e-4,-0.02309 0,-0.03464 0.1668844,-0.200211 0.1832142,-0.484388 0.2078452,-0.762099 0.041844,-0.0431 0.1037613,-0.103667 0.1039225,-0.103922 5.374e-4,-8.49e-4 0.080872,-0.205325 0.1039226,-0.277127 0.0922,-0.287211 0.072659,-0.379264 0.069282,-0.450331 -0.00189,-0.0398 0.00304,-0.04328 0,-0.06928 8.993e-4,-0.0476 0.00366,-0.173078 0.034641,-0.242486 0.03098,-0.06941 0.07167,-0.10715 0.069282,-0.103922 0.1996971,-0.07711 0.3683674,-0.05358 0.5888945,-0.346409 0.1177792,-0.156395 0.1035627,-0.422636 0.1385634,-0.658176 0.2281731,0.02526 0.4472669,-0.01309 0.5888944,-0.06928 0.3491647,-0.138523 0.439752,-0.256879 0.5196128,-0.346408 0.079861,-0.08953 0.1195816,-0.166016 0.1732042,-0.242486 -0.074605,0.106394 0.2312064,-0.210721 0.2771268,-0.242486 0.1511793,-0.10458 0.2788398,-0.198968 0.4156902,-0.346409 0.028265,-0.03045 0.037515,-0.141525 0.069282,-0.173204 0.036359,-0.02086 0.067986,0.0258 0.1039225,0 0.074447,-0.05346 0.060629,-0.153945 0.069282,-0.242486 -0.00889,0.03721 -0.019297,0.08606 -0.069282,0.138564 -0.00622,0.0065 -0.027874,-0.0064 -0.034641,0 0.029917,-0.03434 0.075782,-0.08461 0.1039226,-0.138564 0.017588,-0.03372 0.018216,-0.06757 0.034641,-0.103922 0.1403314,0.01074 0.2445055,-0.04152 0.3810493,-0.06928 0.2076111,0.03743 0.4236427,0.109483 0.6235353,0.03464 C 9.144988,21.62817 9.0870242,21.562248 9.1737172,21.457015 9.3827229,21.393535 9.6103327,21.365945 9.7972525,21.179888 10.116939,20.861663 10.196354,20.242301 10.10902,19.932818 10.02169,19.623335 9.8906963,19.472593 9.7626116,19.343923 9.7309076,19.312073 9.6615779,19.304583 9.6240482,19.274643 9.4507675,18.973204 9.224121,18.744702 8.9658721,18.616467 c -0.03961,-0.01967 -0.097249,0.01692 -0.1385634,0 -0.032366,-0.05039 -0.062873,-0.09058 -0.1039226,-0.138563 -0.014448,-0.07328 0.012902,-0.221906 0,-0.277127 C 8.6829667,18.027774 8.6732018,17.8735 8.5501808,17.646514 8.4442419,17.451047 8.1692702,17.209565 7.8573638,17.05762 c -0.0078,-0.0038 0.00791,-0.03099 0,-0.03464 C 7.8166668,16.97338 7.7910058,16.98912 7.7534412,16.9537 7.6273303,16.834779 7.5222883,16.71323 7.4416736,16.676574 7.2324185,16.581424 7.1201464,16.584954 7.0259834,16.572651 c 0.046995,0.0061 -0.1927606,-0.04937 -0.2424859,-0.06928 -0.092122,-0.03689 -0.1823906,-0.04265 -0.2771269,-0.06928 -0.00338,-9.51e-4 0.0034,-0.0337 0,-0.03464 C 6.3475508,16.160048 6.2872769,16.135101 6.2292438,16.087676 6.1131779,15.992826 6.013055,15.943424 5.9174762,15.879831 5.8593289,15.745643 5.8095375,15.628904 5.7096311,15.464141 5.622213,15.319973 5.4462635,15.021229 4.9821732,14.875246 z m 19.8838478,3.325522 c -0.02854,0.0073 -0.04019,0.05769 -0.06928,0.06928 -0.06813,0.08147 -0.303053,0.195091 -0.311767,0.207845 -0.01339,0.01959 0.16683,-0.137996 0.277127,-0.242486 0.03197,-0.01502 -0.0052,-0.0068 0.103922,-0.03464 z M 9.6933289,19.621043 c 0.011891,0.02244 0.060292,0.04964 0.069282,0.06928 0.225098,0.491856 0.067997,0.46681 0.069282,0.450331 0.015138,-0.194153 -0.086796,-0.35237 -0.1385633,-0.519613 z m 19.9877701,0.588894 c 0.07331,0.02198 0.130765,0.05918 0.207845,0.06928 -0.07411,0.08681 -0.157649,0.157949 -0.207845,0.242486 -0.0038,0.0064 -0.03102,-0.0063 -0.03464,0 0.0077,-0.06544 0.06932,-0.145584 0.06928,-0.207845 -2.2e-5,-0.03113 -0.03297,-0.07203 -0.03464,-0.103923 z M 5.9521171,21.768776 c -0.00499,0.0044 0.00486,0.03148 0,0.03464 -0.085246,0.05544 -0.1482276,0.06512 -0.1732043,0.06928 0.07539,-0.01761 0.1220227,-0.05017 0.1732043,-0.103922 z m 36.3382519,0.207845 c 0.0411,0.02144 0.06286,0.0062 0.103922,0.03464 0.07256,0.05027 0.04972,0.112264 0.103923,0.173204 -0.07399,-0.07292 -0.120938,-0.154358 -0.207845,-0.207845 z m 0.519612,0.727458 c 0.0069,0.03276 0.06642,0.07676 0.06928,0.103922 0.01427,0.13532 -0.02672,0.102672 -0.03464,0.173204 0.01337,-0.06829 -0.01816,-0.170127 -0.03464,-0.277126 z M 6.8181383,25.128938 c -0.1303736,0.0094 -0.2797952,0.04943 -0.4156902,0.103923 0.00404,-0.0016 -0.050186,0.01005 -0.1039226,0.03464 -0.053736,0.0246 -0.1004165,-0.03686 -0.3810493,0.242486 -0.3196915,0.318226 -0.3991022,0.93759 -0.3117676,1.247071 0.087334,0.309481 0.2183306,0.460229 0.3464085,0.588894 0.4488828,0.450953 1.3893486,0.444568 1.835965,0 0.4509967,-0.448903 0.4445717,-1.389343 0,-1.835965 C 7.5479872,25.26878 7.2092591,25.10085 6.8181383,25.128938 z m -2.6673454,3.221599 c -0.059932,0.0081 -0.1161008,0.01755 -0.1732043,0.03464 0.6378822,2.317192 1.7069984,4.534784 3.3255216,6.547121 l -0.034641,0.03464 c 2.8239408,4.172226 6.9786368,6.682367 11.5007628,7.72491 0.0064,-0.02506 0.02992,-0.04368 0.03464,-0.06928 0.0064,-0.03473 -0.003,-0.03644 0,-0.06928 0.02723,-0.151498 -7.38e-4,-0.318184 0,-0.311768 0.07409,-0.610458 0.05552,-1.173608 -0.103922,-1.870606 -0.05471,-0.239163 -0.05902,-0.366129 -0.06928,-0.450331 0.02836,-0.05722 0.07739,-0.113993 0.103923,-0.173204 0.08163,-0.182189 0.163482,-0.38469 0.242486,-0.588895 0.224396,-0.580019 0.360942,-1.142967 0.242486,-1.766683 -0.118457,-0.623716 -0.712095,-1.258683 -1.350994,-1.420275 -0.09043,-0.02287 -0.321991,-0.225939 -0.06928,0 -0.284728,-0.254573 -0.666273,-0.391405 -0.969944,-0.41569 -0.303671,-0.02428 -0.564833,0.02146 -0.866021,0.06928 -0.265248,0.04212 -0.357549,0.02742 -0.311768,0.03464 -0.01423,-0.0085 -0.0061,-0.01691 -0.03464,-0.03464 -0.313218,-0.194578 -0.696745,-0.404082 -1.316352,-0.346409 -0.01152,-0.01527 -0.02431,-0.05611 -0.03464,-0.06928 -0.159317,-0.203175 -0.267285,-0.232191 -0.381049,-0.311767 0.02511,0.03558 0.05602,0.271036 0.103922,0.381049 -0.02561,-0.0084 -0.04366,-0.02787 -0.06928,-0.03464 -0.03506,-0.14965 -0.03777,-0.294648 -0.103923,-0.41569 -0.0627,-0.114729 -0.06629,-0.296675 -0.138563,-0.381049 -0.220793,-0.257765 -0.473088,-0.427632 -0.727458,-0.554254 -0.471856,-0.234883 -1.016702,-0.352524 -1.62812,-0.242486 -1.96e-4,-0.0017 -0.01325,0.01063 -0.138564,-0.06928 -0.05238,-0.0334 -0.08303,-0.0697 -0.138563,-0.103922 2e-5,-0.04906 -0.02999,-0.08986 -0.03464,-0.138563 0.262232,-0.481534 0.271611,-1.181563 -0.103922,-1.558839 -0.104652,-0.105135 -0.308648,-0.03683 -0.450331,-0.103922 -0.04718,-0.07026 -0.04989,-0.188202 -0.103923,-0.242486 -0.0077,-0.0077 -0.02671,0.0076 -0.03464,0 -0.01592,-0.312573 -0.07213,-0.660081 -0.277127,-0.866022 -0.2077784,-0.208744 -0.5717512,-0.151454 -0.900662,-0.173204 -0.077964,-0.0052 -0.126546,-0.07981 -0.207845,-0.06928 0.00763,0.0021 0.1128415,0.004 0.1039225,0 -0.018611,-0.0084 -0.051772,-0.04354 -0.1385634,-0.06928 -0.043396,-0.01287 -0.1098109,-0.0252 -0.1732043,-0.03464 -0.021131,-0.0031 -0.03742,0.0018 -0.069282,0 -0.059862,-2.79e-4 -0.034052,-0.0415 -0.1039225,-0.03464 -0.1085395,0.01065 -0.1004653,0.04618 -0.1732042,0.06928 -0.038794,0.01232 -0.07405,-0.01327 -0.1039226,0 -8.95e-5,2.3e-5 -0.029633,-0.0016 -0.034641,0 -0.066739,-0.03906 -0.097469,-0.113124 -0.1732042,-0.138564 -0.3872252,-0.130058 -0.5808635,-0.0692 -0.8313804,0 -0.056544,0.01562 -0.084928,0.08247 -0.1385634,0.103923 -0.05887,-0.01152 -0.1207193,0.0056 -0.1732043,0 -0.046826,-0.230356 -0.052246,-0.501857 -0.207845,-0.658176 -0.2077768,-0.208742 -0.571747,-0.151449 -0.9006622,-0.173204 -0.052017,-0.03719 -0.1323437,-0.04153 -0.207845,-0.06928 0.00763,0.0021 0.1128433,0.004 0.1039225,0 -0.018615,-0.0084 -0.051762,-0.04353 -0.1385634,-0.06928 -0.04235,-0.0703 -0.012477,-0.185419 -0.069282,-0.242486 -0.040017,-0.0402 -0.1271981,8.59e-4 -0.1732042,-0.03464 -0.018116,-0.02935 -0.012572,-0.07457 -0.034641,-0.103922 0.01527,0.02301 -0.035994,-0.0356 -0.034641,-0.03464 C 5.221518,28.776614 5.1831742,28.657202 4.9821732,28.523741 4.7575981,28.374627 4.3740094,28.316371 4.1507929,28.350537 z m 38.8323931,1.281712 c -0.139962,-0.005 -0.284386,0.01662 -0.415691,0.06928 -0.271588,0.108919 -0.433141,0.282834 -0.484971,0.346409 -0.102381,0.119713 -0.09133,0.292752 -0.138564,0.450331 -0.04551,0.0095 -0.07404,-0.02898 -0.277127,0.173204 -0.320154,0.318654 -0.346618,0.651674 -0.346408,0.935303 2.09e-4,0.283629 0.03032,0.617788 0.346408,0.935303 0.133471,0.134127 0.316643,0.19566 0.484972,0.242486 0.504871,-0.959432 0.943505,-1.96633 1.281712,-3.048395 -0.0091,-0.0037 0.0096,-0.03092 0,-0.03464 -0.01629,-0.0063 -0.05092,0.0057 -0.06928,0 -0.10559,-0.03249 -0.241088,-0.06424 -0.381049,-0.06928 z m -15.380538,2.182373 c 0.04596,0.07474 0.139792,0.106008 0.207845,0.173204 -0.0078,-0.0073 -0.105287,-6.28e-4 -0.103922,0 0.0041,0.0019 0.01927,0.02715 -0.103923,-0.173204 z" id="4" fill="#204a87"/>
 <path d="m 23.688232,1.9542094 c -0.115014,0.00408 -0.230981,0.028481 -0.346408,0.034641 0.01243,0.013321 0.01653,0.020587 0.03464,0.034641 0.188224,0.1460415 0.381388,0.07624 0.311767,-0.069282 z m 0.242486,0 c 0.100536,0.043887 0.185559,0.046643 0.242486,0 -0.08097,8.363e-4 -0.1613,-0.00187 -0.242486,0 z m 0.762099,0 c -0.19559,0.1588858 -0.243571,0.2749996 0,0.1732043 0.296619,-0.1239683 0.296357,0.2188287 0,0.3810493 -0.06028,0.032995 -0.04915,0.083295 -0.06928,0.1039226 0.102174,-0.017367 0.282311,0.029089 0.38105,0.1039225 0.260593,0.1975134 0.346339,0.144093 0.41569,-0.2771268 0.02214,-0.1344554 0.08607,-0.2935785 0.138563,-0.4503311 -0.287634,-0.018002 -0.575247,-0.029683 -0.866021,-0.034641 z m 1.524197,1.4202749 c -0.02414,0.00237 -0.04602,0.025312 -0.06928,0.034641 -0.01551,0.00622 -0.0221,-0.012481 -0.03464,0 -0.05016,0.049928 -0.04993,0.157688 0,0.2078451 0.04992,0.050161 0.123044,0.049928 0.173204,0 0.05015,-0.049926 0.04993,-0.1576868 0,-0.2078451 -0.01872,-0.018809 -0.04514,-0.037011 -0.06928,-0.034641 z M 14.543048,4.1019421 c -2.904644,1.5321124 -5.3608197,3.8371775 -7.2399378,6.5471209 0.025983,0.06271 -0.00432,0.133303 -0.1039225,0.277127 -0.1671347,0.24133 -0.1469801,0.253937 0.069282,0.346408 0.2104298,0.08998 0.189152,0.102498 -0.069282,0.277127 -0.1550154,0.104746 -0.259074,0.240769 -0.242486,0.311768 0.021948,0.09394 0.077079,0.09219 0.1732042,-0.03464 0.2107374,-0.278047 0.4463761,-0.132204 0.2771268,0.173204 -0.078976,0.142508 -0.1257508,0.253603 -0.069282,0.242486 0.05647,-0.01112 0.057528,0.06211 -0.034641,0.173204 -0.1079454,0.130112 -0.1239073,0.247143 -0.034641,0.277127 0.076222,0.0256 0.096042,0.08987 0.069282,0.173204 -0.031129,0.09694 0.010356,0.08582 0.1039226,-0.03464 0.1656246,-0.213225 0.3293893,-0.120159 0.2424859,0.138564 -0.03627,0.107984 0.1126223,0.340029 0.3810494,0.588894 0.5877704,0.544936 0.9602521,0.735035 1.3163523,0.658176 0.1674877,-0.03615 0.320598,-0.0063 0.3464085,0.06928 0.025812,0.07556 0.053498,0.140568 0.069282,0.173204 0.060975,0.126079 0.6152636,-0.492146 0.5888946,-0.658176 -0.01534,-0.09656 -0.06226,-0.284803 -0.103923,-0.41569 -0.04166,-0.130887 -0.02144,-0.290585 0.03464,-0.346409 0.05608,-0.05582 0.06148,-0.196899 0.03464,-0.311767 -0.05659,-0.242211 0.720963,-1.376714 0.900662,-1.316353 0.06645,0.02232 0.255379,-0.05822 0.41569,-0.173204 0.28753,-0.206234 0.402254,-0.461724 0.346409,-0.796739 -0.01571,-0.09423 0.02294,-0.170602 0.103922,-0.173205 0.08098,-0.0026 0.253263,-0.127185 0.346409,-0.2771264 0.135046,-0.2173871 0.297745,-0.2930904 0.866021,-0.4156902 0.438098,-0.094515 0.823199,-0.2621908 1.004585,-0.4156902 0.162295,-0.1373363 0.453016,-0.3160498 0.658176,-0.4156902 l 0.381049,-0.2078451 -0.41569,0.034641 c -0.227731,0.00304 -0.498574,0.040692 -0.623535,0.1039226 -0.268199,0.1357012 -0.5129,-0.047947 -0.277127,-0.2078451 0.08908,-0.06041 0.109504,-0.1797322 0.06928,-0.2771268 -0.05075,-0.1228536 0.0279,-0.2003483 0.242486,-0.2771268 0.237507,-0.084976 0.326973,-0.064296 0.41569,0.1039225 0.141225,0.2678143 0.446168,0.2094392 0.381049,-0.069282 -0.06128,-0.2622705 -0.73672,-0.4711909 -1.004584,-0.3117676 -0.28388,0.1689498 -0.497489,0.094573 -0.38105,-0.1385634 0.06906,-0.1382818 0.0301,-0.2226337 -0.173204,-0.2771268 -0.361551,-0.096907 -0.270005,-0.3063273 0.138563,-0.3117677 0.269882,-0.00359 0.328842,-0.047855 0.277127,-0.2078451 -0.09049,-0.2799534 0.303322,-0.3563044 0.762099,-0.1385633 0.207506,0.098484 0.452394,0.1623616 0.554253,0.1385633 0.143531,-0.033532 0.123315,-0.082052 -0.103922,-0.1732042 -0.37215,-0.1492898 -0.314709,-0.3097891 0.138563,-0.4156902 0.33406,-0.078048 0.347536,-0.099621 0.103923,-0.2078451 -0.141367,-0.062798 -0.232923,-0.149454 -0.173204,-0.1732043 0.05972,-0.023751 -0.05119,-0.038105 -0.242486,-0.034641 -0.452319,0.00819 -0.475438,-0.1551088 -0.06928,-0.3464085 L 15.305145,5.210449 14.958736,5.279731 C 14.759528,5.31855 14.558462,5.295389 14.508405,5.24509 14.356392,5.0923772 14.761116,4.8077888 15.166581,4.794759 c 0.284391,-0.00914 0.364521,-0.016129 0.277127,-0.1039225 -0.06445,-0.064741 -0.147996,-0.1098527 -0.173204,-0.069282 -0.08425,0.1356347 -0.541898,-0.046067 -0.519613,-0.207845 0.01208,-0.087767 -0.05574,-0.191039 -0.138563,-0.242486 -0.02706,-0.016807 -0.02723,-0.050477 -0.03464,-0.069282 -0.0093,0.0049 -0.02532,-0.00492 -0.03464,0 z m 0.969944,0 c -0.01551,0.00622 -0.0221,0.02216 -0.03464,0.034641 -0.05016,0.049929 -0.04993,0.1230461 0,0.1732042 0.04992,0.050161 0.123043,0.049929 0.173204,0 0.05015,-0.049925 0.04993,-0.1230461 0,-0.1732042 -0.03745,-0.037618 -0.09203,-0.053299 -0.138563,-0.034641 z M 28.919001,4.8294 c -0.06189,0.01446 -0.06455,0.072058 0,0.1385633 0.09313,0.095947 0.09165,0.1125083 -0.06928,0.034641 -0.143257,-0.069317 -0.246984,-0.03499 -0.311768,0.069282 -0.06477,0.1042674 -0.123785,0.084442 -0.207845,0 -0.08172,-0.082096 -0.08113,-0.1081645 0.03464,-0.069282 0.111674,0.037517 0.142754,0.039176 0.06928,-0.034641 -0.07583,-0.076179 -0.155435,-0.072295 -0.277127,0.034641 -0.0979,0.086021 -0.252426,0.1367116 -0.311768,0.1039225 0.0059,0.011874 0.01238,0.045392 0.03464,0.069282 0.166464,0.1786687 -0.205577,0.4279829 -0.554253,0.3810494 -0.275274,-0.037057 -0.287719,-0.046925 -0.103923,0.1039226 0.110304,0.090528 0.168801,0.137148 0.103923,0.1039225 -0.06488,-0.033227 -0.175534,0.015587 -0.242486,0.1039226 -0.06695,0.088337 -0.127792,0.1153827 -0.138564,0.069282 -0.01077,-0.0461 -0.102081,0.010072 -0.173204,0.1039225 -0.07113,0.093853 -0.192579,0.1651583 -0.277127,0.1732042 -0.356916,0.033971 -0.468001,0.1240737 -0.311768,0.242486 0.198728,0.150618 0.09463,0.4556565 -0.173204,0.5196128 -0.126091,0.030107 -0.171382,0.1362021 -0.138563,0.2771268 0.02884,0.1238003 0.01394,0.2291295 -0.03464,0.207845 -0.04859,-0.021281 -0.195595,0.1025336 -0.311768,0.2771268 -0.11616,0.174591 -0.249095,0.2773907 -0.311767,0.242486 -0.06266,-0.034909 -0.06562,0.037204 0,0.1385634 0.06959,0.1075141 0.07533,0.1995313 0,0.242486 -0.51206,0.291963 -0.532426,0.318565 -0.346409,0.3810493 0.101333,0.034037 0.230794,0.1870052 0.277127,0.3464085 0.096,0.3302598 -0.161722,0.6199448 -0.450331,0.5196127 -0.251877,-0.087565 -0.346006,-0.037094 -0.277127,0.1039226 0.03128,0.064034 -0.03694,0.17787 -0.138563,0.2771268 -0.481773,0.4705597 -0.527079,0.6882057 -0.242486,1.0738667 0.06162,0.08351 0.110308,0.330409 0.138563,0.519613 0.04396,0.294201 0.123031,0.341305 0.38105,0.311767 0.193987,-0.02221 0.374654,-0.175358 0.554253,-0.41569 l 0.277127,-0.381049 0.242486,0.277127 c 0.128091,0.152621 0.348836,0.46355 0.484972,0.692817 0.350583,0.590456 0.372215,0.610174 0.623535,0.346408 0.124344,-0.130498 0.317155,-0.280653 0.450331,-0.311768 0.190842,-0.04459 0.231102,-0.101644 0.138564,-0.277126 -0.159917,-0.303219 -0.07952,-0.780429 0.138563,-0.831381 0.09803,-0.0229 0.152986,-0.08927 0.103922,-0.138563 -0.04908,-0.04929 -0.05781,-0.150308 0,-0.207845 0.06896,-0.06864 0.01986,-0.148669 -0.173204,-0.277127 -0.245434,-0.163303 -0.302419,-0.27908 -0.311767,-0.6581765 -0.01048,-0.4248853 0.144807,-0.6574335 0.692817,-1.1085072 0.06842,-0.056323 0.09913,-0.2186508 0.06928,-0.3464085 -0.122305,-0.5234848 0.499914,-1.0311921 0.900662,-0.7274579 0.201468,0.1526991 0.173887,0.2295896 -0.346408,1.1085072 -0.262701,0.4437665 -0.304497,0.5797704 -0.173204,0.9699438 0.201728,0.5994891 0.396152,0.6444301 0.900662,0.3117677 0.490057,-0.3231409 1.085513,-0.4789948 1.350993,-0.3464085 0.383331,0.1914569 0.110487,0.373476 -1.247071,0.7620989 -0.210062,0.06013 -0.184445,0.446023 0.03464,0.519613 0.175714,0.05903 0.240224,0.453214 0.103923,0.588894 -0.06099,0.06071 -0.169568,0.02315 -0.277127,-0.06928 -0.285342,-0.245214 -0.531261,0.09809 -0.346409,0.484972 0.108468,0.226996 0.05965,0.349671 -0.173204,0.623535 -0.230911,0.271583 -0.32808,0.320841 -0.484972,0.242486 -0.156625,-0.07823 -0.290513,0.0019 -0.692817,0.346408 -0.47877,0.409948 -0.487151,0.400784 -0.588894,0.207845 -0.09227,-0.174954 -0.152002,-0.167141 -0.41569,0 -0.2489,0.157769 -0.36758,0.157285 -0.588895,0.03464 -0.159301,-0.08829 -0.259421,-0.233504 -0.242486,-0.346408 0.06821,-0.454886 0.01015,-0.603162 -0.173204,-0.519613 -0.185388,0.08447 -0.152955,0.303326 0.103922,0.969944 0.116999,0.303658 0.09566,0.325655 -0.242486,0.41569 -0.200047,0.05327 -0.430514,0.183115 -0.519612,0.311768 -0.0891,0.128651 -0.226058,0.239567 -0.277127,0.207845 -0.05107,-0.03172 -0.06308,0.01685 -0.03464,0.138563 0.0642,0.27477 -0.08433,0.562305 -0.346408,0.623535 -0.109218,0.02552 -0.239989,0.138588 -0.277127,0.277127 -0.07634,0.284803 -0.594264,0.783836 -0.762099,0.727458 -0.06069,-0.02039 -0.100422,0.07462 -0.103922,0.207845 -0.0051,0.193016 -0.06656,0.246502 -0.311768,0.242486 -0.398692,-0.0065 -0.372271,0.222354 0.03464,0.277127 0.317321,0.04271 0.743489,0.550278 0.866021,1.004585 0.09961,0.369371 -0.134667,0.727108 -0.450331,0.727457 -0.388341,4.31e-4 -1.360913,0.189885 -1.489557,0.277127 -0.07306,0.04955 -0.04351,0.254472 0.06928,0.588895 0.09806,0.290726 0.14157,0.656267 0.103923,0.796739 -0.09675,0.360953 0.259432,0.803203 0.588894,0.727458 0.136282,-0.03133 0.331409,0.01157 0.41569,0.103923 0.126778,0.138927 0.188059,0.122266 0.38105,-0.03464 0.128298,-0.104305 0.337974,-0.242546 0.484972,-0.311768 0.397899,-0.187372 0.62688,-0.485229 0.588894,-0.796739 -0.01856,-0.152259 -0.02924,-0.334685 -0.03464,-0.38105 -0.0054,-0.04637 0.162996,-0.231555 0.38105,-0.41569 0.293201,-0.247599 0.392241,-0.392722 0.346408,-0.588894 -0.08348,-0.357283 0.124927,-0.61054 0.519613,-0.623536 0.189988,-0.0063 0.413316,-0.118518 0.519612,-0.242486 0.268627,-0.313306 0.528695,-0.341298 0.831381,-0.06928 0.407563,0.366274 1.161568,0.780917 1.385634,0.762098 0.302944,-0.02544 0.714475,0.345759 0.692817,0.623536 -0.0132,0.169254 0.02192,0.220187 0.103922,0.138563 0.06892,-0.0686 0.04519,-0.240199 -0.03464,-0.41569 -0.159546,-0.350733 -0.077,-0.50601 0.173204,-0.38105 0.120925,0.06041 0.15712,0.04479 0.138563,-0.03464 -0.01522,-0.06513 -0.271394,-0.166915 -0.588894,-0.242486 -0.367572,-0.08749 -0.704336,-0.264434 -0.900662,-0.484972 -0.169586,-0.190501 -0.384264,-0.430146 -0.484972,-0.519613 -0.149084,-0.132452 -0.153762,-0.189306 -0.03464,-0.381049 0.136325,-0.219466 0.134242,-0.228892 0.242486,-0.06928 0.06387,0.09419 0.166233,0.145344 0.207845,0.103923 0.04161,-0.04142 0.179448,0.01249 0.311768,0.138563 0.132323,0.126078 0.507356,0.350538 0.83138,0.484972 0.398324,0.165266 0.621314,0.33212 0.727458,0.554253 0.18302,0.383058 0.860052,0.950613 1.073866,0.900662 0.08101,-0.01892 0.122845,-0.08474 0.06928,-0.138563 -0.05357,-0.05382 -0.150377,-0.05721 -0.207845,0 -0.06388,0.06358 -0.101093,0.06006 -0.06928,-0.03464 0.03964,-0.118016 0.09922,-0.140839 0.242486,-0.06928 0.215747,0.107754 0.204165,0.325256 -0.03464,0.381049 -0.08918,0.02084 -0.160252,0.11501 -0.138563,0.207845 0.04987,0.213444 0.125394,0.200757 0.41569,-0.103923 0.288507,-0.302792 0.268543,-0.443085 -0.103923,-0.623535 -0.26387,-0.127832 -0.359492,-0.501534 -0.103922,-0.41569 0.0585,0.01966 0.124829,-0.03888 0.138563,-0.138563 0.01774,-0.128725 0.168994,-0.200052 0.484972,-0.242486 0.347113,-0.04661 0.452124,-0.11389 0.519613,-0.311768 0.05708,-0.167319 0.02346,-0.276125 -0.06928,-0.346409 -0.205899,-0.15605 0.07319,-1.294582 0.415691,-1.697401 0.228404,-0.268631 0.342607,-0.333855 0.554253,-0.277127 0.192061,0.05148 0.235838,0.117073 0.173204,0.242486 -0.06309,0.126313 -0.01674,0.182287 0.207845,0.242486 0.388202,0.10405 0.650617,-0.09657 0.311768,-0.242486 -0.156251,-0.06728 -0.230819,-0.122108 -0.173204,-0.207845 0.12602,-0.187544 0.779086,-0.595086 0.900662,-0.554254 0.137636,0.04624 0.156359,0.310549 0.03464,0.554254 -0.08255,0.165275 0.0046,0.272827 0.554253,0.519613 0.764281,0.343147 0.902217,0.516034 0.727458,0.83138 -0.159268,0.287393 -0.795279,0.399568 -1.420275,0.277127 -0.557803,-0.109278 -0.787689,-0.0557 -1.108507,0.242486 -0.134062,0.124597 -0.352859,0.243949 -0.484972,0.277127 -0.132124,0.03318 -0.262755,0.172804 -0.277126,0.277126 -0.01436,0.104321 -0.09262,0.199812 -0.173205,0.207845 -0.342678,0.03416 -0.393907,0.106732 -0.277127,0.450332 0.06679,0.196516 0.15791,0.368305 0.173205,0.381049 0.01531,0.01274 0.04828,0.049 0.06928,0.103922 0.04467,0.1169 0.2356,0.253682 0.346409,0.242486 0.04251,-0.0043 0.15314,0.01163 0.277127,0.03464 0.127695,0.0237 0.262224,-0.02417 0.311767,-0.103922 0.05912,-0.09517 0.241699,-0.122924 0.519613,-0.103923 0.296744,0.02029 0.473599,-0.03083 0.658176,-0.173204 0.363557,-0.280446 0.444687,-0.09739 0.41569,0.969944 -0.02907,1.069923 -0.231594,1.407827 -0.727457,1.281711 -0.23588,-0.05999 -0.418072,-0.03378 -0.623536,0.103923 -0.225489,0.151124 -0.441626,0.192326 -1.177789,0.103922 -1.347177,-0.161778 -1.320178,-0.183709 -1.489556,0.623536 -0.07019,0.334492 -0.387249,0.332779 -1.21243,0.03464 -0.445728,-0.161044 -0.893102,-0.268532 -1.004585,-0.242486 -0.111467,0.02604 -0.330511,-0.008 -0.484971,-0.103922 -0.221746,-0.137757 -0.260264,-0.220099 -0.207846,-0.41569 0.0804,-0.29997 -0.143616,-0.764037 -0.381049,-0.79674 -0.09477,-0.01306 -0.430278,0.09735 -0.762099,0.242486 -0.33183,0.145139 -0.701957,0.255542 -0.796739,0.242486 -0.09478,-0.01305 -0.561342,0.214093 -1.039226,0.519613 -0.916438,0.58589 -1.26288,0.712384 -1.420275,0.554253 -0.164186,-0.164941 -0.261466,-0.06888 -0.311767,0.311768 -0.02666,0.201758 -0.181029,0.505039 -0.346409,0.658176 -0.274437,0.254108 -0.308939,0.550084 -0.138563,0.935303 0.103047,0.232968 -0.09369,0.823416 -0.346409,1.039226 -0.15104,0.128977 -0.370907,0.553287 -0.484971,0.935303 -0.114077,0.382019 -0.281878,0.722417 -0.346409,0.762098 -0.180623,0.111056 -0.136899,0.469927 0.138563,1.524198 0.169758,0.649681 0.221941,1.09515 0.173205,1.385634 -0.06715,0.400146 -0.0334,0.455208 0.207845,0.588894 0.143656,0.07961 0.262781,0.181089 0.277127,0.242486 0.01434,0.0614 0.271985,0.302885 0.554253,0.519613 0.282267,0.216727 0.516395,0.456977 0.519613,0.554253 0.0094,0.283013 0.531161,0.72256 1.143148,0.935303 0.530294,0.184345 0.581759,0.166674 1.039225,-0.06928 0.268381,-0.138424 0.626922,-0.239646 0.79674,-0.242486 0.176568,-0.003 0.543309,-0.168892 0.866021,-0.38105 0.310389,-0.20405 0.691261,-0.417593 0.831381,-0.450331 0.248436,-0.05805 0.6872,0.146553 0.83138,0.38105 0.0498,0.08099 0.184666,0.05959 0.41569,-0.06928 0.492308,-0.274616 0.717357,-0.0475 0.831381,0.762099 0.15964,1.133448 0.25284,1.385512 0.623535,1.62812 0.325422,0.212988 0.687476,0.621047 0.692817,0.796739 0.0013,0.0418 0.11252,0.151779 0.242486,0.242486 0.129965,0.09071 0.275416,0.295653 0.311768,0.450331 0.03635,0.154676 0.125061,0.429006 0.207845,0.588895 0.09626,0.185923 0.127952,0.4223 0.06928,0.692817 -0.05045,0.232638 -0.104792,0.712772 -0.103922,1.039225 0.0014,0.524915 0.04262,0.617416 0.346408,1.004585 0.397981,0.507201 0.571822,0.814661 0.79674,1.420275 0.166632,0.448658 0.374206,0.809147 0.623535,1.177789 1.769765,-0.877814 3.409289,-2.005422 4.849719,-3.360163 -0.122452,-0.139357 -0.106349,-0.285058 0.103923,-0.623535 0.147139,-0.236854 0.398406,-0.525091 0.554253,-0.658176 0.246906,-0.210838 0.455576,-0.621565 0.450331,-0.900662 -9.06e-4,-0.04874 -0.0022,-0.123748 0,-0.173205 0.01332,-0.303824 -0.341426,-1.330007 -0.519612,-1.489556 -0.117061,-0.104816 -0.270656,-0.343645 -0.311768,-0.519613 -0.04112,-0.175968 -0.1286,-0.393558 -0.207845,-0.484972 -0.284547,-0.328226 0.251944,-2.059242 0.866021,-2.771268 0.179743,-0.208416 0.433313,-0.594503 0.554254,-0.866021 0.292086,-0.65577 0.639726,-2.222533 0.588894,-2.632705 -0.02321,-0.187179 0.06377,-0.368624 0.173204,-0.450331 0.233341,-0.174223 -0.04331,-0.08228 -1.073866,0.41569 -0.655178,0.316583 -0.696707,0.313245 -1.039225,0.173205 -0.199301,-0.08148 -0.33209,-0.181971 -0.311768,-0.242486 0.02033,-0.06052 -0.02908,-0.113421 -0.103923,-0.138564 -0.07485,-0.02514 -0.308176,-0.241921 -0.519612,-0.450331 -0.211438,-0.208407 -0.508072,-0.461007 -0.658176,-0.554253 -0.15009,-0.09325 -0.290587,-0.221111 -0.311768,-0.311768 -0.02118,-0.09066 -0.17251,-0.20516 -0.311768,-0.242486 -0.198558,-0.05322 -0.283278,-0.170421 -0.381049,-0.588894 -0.06858,-0.293503 -0.19965,-0.624911 -0.311768,-0.727458 -0.112129,-0.102547 -0.272022,-0.304539 -0.346408,-0.450331 -0.07438,-0.145796 -0.362438,-0.482839 -0.658176,-0.762099 -0.295749,-0.279259 -0.569321,-0.574394 -0.588895,-0.658176 -0.06321,-0.270546 0.156082,-0.3742 0.311768,-0.138564 0.142312,0.215418 0.142922,0.219889 0.173204,0 0.03023,-0.219368 0.07698,-0.215097 0.346409,0 0.360585,0.287864 0.766712,0.831719 0.83138,1.108508 0.02715,0.116223 0.117181,0.194386 0.207845,0.173204 0.213477,-0.04988 0.494201,0.252874 0.588894,0.658176 0.07896,0.337963 0.345257,0.638394 0.935303,1.039226 0.235979,0.160306 0.408693,0.383905 0.484972,0.658176 0.256519,0.922452 0.487859,1.155595 0.900662,0.796739 0.09421,-0.08189 0.523681,-0.428716 0.935303,-0.762099 0.411626,-0.333383 0.86767,-0.743587 1.039226,-0.900662 0.357543,-0.32736 0.999663,-1.203096 0.866021,-1.177788 -0.04906,0.0093 -0.0061,-0.09653 0.103923,-0.242486 0.109988,-0.14596 0.185748,-0.282454 0.138563,-0.311768 -0.04718,-0.02931 -0.04579,-0.166625 0.03464,-0.311768 0.141269,-0.254907 0.126885,-0.274318 -0.381049,-0.450331 -0.306618,-0.106252 -0.577114,-0.292877 -0.658177,-0.450331 l -0.138563,-0.277127 -0.103923,0.277127 c -0.126758,0.316002 -0.745693,0.825785 -0.935302,0.762099 -0.0677,-0.02275 -0.119498,-0.126242 -0.138564,-0.207845 -0.01907,-0.08161 -0.13165,-0.18713 -0.242486,-0.242486 -0.110839,-0.05536 -0.217826,-0.176661 -0.242486,-0.277127 -0.02466,-0.100467 -0.267191,-0.390354 -0.519613,-0.623535 -0.40934,-0.378143 -0.444697,-0.434209 -0.311767,-0.588895 0.212542,-0.247334 0.607101,-0.198164 0.866021,0.103923 0.383958,0.447959 0.988334,0.640622 1.420275,0.450331 0.316285,-0.139341 0.392272,-0.14113 0.484972,0.03464 0.141755,0.268814 0.556,0.301724 1.662761,0.06928 0.815175,-0.171203 0.901666,-0.181229 1.177788,0.03464 0.16674,0.130358 0.442885,0.240152 0.623536,0.242486 0.04208,5.43e-4 0.06721,-0.003 0.103922,0 C 44.09283,14.549522 40.360059,8.6538407 35.01579,5.1758084 35.0054,5.1894404 34.991,5.1966694 34.98115,5.2104494 34.639693,5.6880001 34.446764,5.7556997 34.18441,5.5568578 34.03742,5.4454508 34.07026,5.4009136 34.253692,5.279731 34.461949,5.1421444 34.426783,5.1281894 34.011206,5.0372451 33.526504,4.931167 33.528856,4.9652318 33.838001,5.4529353 34.089208,5.84925 33.968617,6.2086904 33.630156,6.1111114 33.406467,6.0466244 32.830577,6.5925952 32.97198,6.7346467 c 0.04271,0.042904 0.03606,0.1492043 -0.03464,0.242486 -0.09977,0.1316335 -0.218922,0.1453324 -0.519613,0.069282 -0.419128,-0.1060083 -0.478558,-0.022829 -0.103922,0.1385633 0.172671,0.074393 0.176779,0.1578371 0.103922,0.2771268 -0.150425,0.2462837 -0.82388,0.00459 -1.004584,-0.3464085 C 31.332028,6.9581242 31.116526,6.77524 30.962811,6.7000058 30.714053,6.5782353 30.707773,6.5611332 30.858888,6.4575199 30.952268,6.3934973 31.202226,6.3695314 31.413142,6.422879 32.085314,6.5928834 33.033315,6.210131 32.937339,5.7993437 32.89522,5.6190791 31.423585,5.2044505 31.101374,5.279731 31.017279,5.2993795 30.889414,5.2514625 30.789606,5.1758084 30.65208,5.0715771 30.4881,5.0625303 30.096789,5.2104493 29.522879,5.4273919 29.17524,5.3187303 29.577177,5.0372451 29.810458,4.8738775 29.808831,4.8704469 29.507895,4.9333225 29.340424,4.9683123 29.179554,4.9516351 29.126846,4.8986816 29.074126,4.845731 28.980891,4.81494 28.919001,4.8294 z M 15.790118,5.4529353 c -0.02414,0.00237 -0.04602,0.025312 -0.06928,0.034641 -0.01551,0.00622 -0.05674,0.02216 -0.06928,0.034641 -0.05016,0.049929 -0.04993,0.1230462 0,0.1732043 0.04992,0.050161 0.157684,0.049929 0.207845,0 0.05015,-0.049925 0.04993,-0.1576868 0,-0.2078451 -0.01872,-0.01881 -0.04514,-0.037011 -0.06928,-0.034641 z m 0.311768,0.1732042 c -0.01551,0.00622 -0.0221,0.02216 -0.03464,0.034641 -0.05016,0.049928 -0.04993,0.1230462 0,0.1732042 0.04992,0.05016 0.123043,0.049929 0.173204,0 0.05015,-0.049925 0.04993,-0.1230461 0,-0.1732042 -0.03745,-0.037618 -0.09203,-0.053299 -0.138563,-0.034641 z m 10.322973,0.069282 c -0.01551,0.00622 -0.0221,0.022159 -0.03464,0.034641 -0.05016,0.049927 -0.04993,0.1230472 0,0.1732043 0.04992,0.050161 0.123042,0.049928 0.173204,0 0.05015,-0.049926 0.04993,-0.123046 0,-0.1732043 -0.03745,-0.037619 -0.09203,-0.053299 -0.138564,-0.034641 z m -0.83138,0.9006621 c -0.01551,0.00622 -0.0221,0.02216 -0.03464,0.034641 -0.05016,0.049928 -0.04993,0.1230462 0,0.1732043 0.04992,0.05016 0.123042,0.049929 0.173204,0 0.05015,-0.049924 0.04993,-0.123046 0,-0.1732043 -0.03745,-0.037618 -0.09203,-0.053299 -0.138563,-0.034641 z m -0.41569,0.3464085 c -0.01551,0.00622 -0.0221,0.02216 -0.03464,0.034641 -0.05016,0.049929 -0.04993,0.1230459 0,0.1732042 0.04992,0.050161 0.123044,0.049929 0.173204,0 0.05015,-0.049924 0.04993,-0.1230461 0,-0.1732042 -0.03745,-0.037619 -0.09203,-0.053299 -0.138563,-0.034641 z m -6.027508,0.1039226 c -0.01551,0.00622 -0.0221,0.02216 -0.03464,0.034641 -0.05016,0.049928 -0.04993,0.1230465 0,0.1732043 0.04992,0.05016 0.123043,0.049928 0.173204,0 0.05015,-0.049925 0.04993,-0.1230461 0,-0.1732043 -0.03745,-0.037619 -0.09203,-0.053299 -0.138563,-0.034641 z m -5.022923,0.1039225 c -0.04404,0.00645 -0.07417,0.013702 -0.06928,0.034641 0.0063,0.027146 0.124796,0.080484 0.277127,0.1039226 0.361114,0.055564 0.375749,0.064436 0.277127,-0.034641 C 14.545285,7.186911 14.259486,7.130997 14.127358,7.1503369 z m 4.815078,0.1732042 c -0.02414,0.00237 -0.04602,0.025312 -0.06928,0.034641 -0.01551,0.00622 -0.0221,0.02216 -0.03464,0.034641 -0.05016,0.049928 -0.04993,0.1230455 0,0.1732043 0.04992,0.05016 0.123043,0.049928 0.173205,0 0.05015,-0.049925 0.04993,-0.1576874 0,-0.2078451 -0.01872,-0.018809 -0.04514,-0.037011 -0.06928,-0.034641 z m -5.196128,0.6235353 c 0.02414,-0.00237 0.05056,0.015832 0.06928,0.034641 0.04993,0.050158 0.05015,0.1579202 0,0.2078451 -0.05016,0.049929 -0.123285,0.050161 -0.173204,0 -0.04993,-0.050158 -0.05016,-0.1579168 0,-0.2078451 0.01254,-0.012481 0.01913,0.00622 0.03464,0 0.02326,-0.00933 0.04514,-0.032271 0.06928,-0.034641 z m 17.008658,1.0738664 c 0.01993,-0.00669 0.04767,0.00338 0.06928,0 0.144117,-0.022558 0.31761,0.02694 0.415691,0.1385634 0.226008,0.2572158 0.236372,0.3395535 0.03464,0.3117676 -0.09294,-0.012801 -0.201129,0.037367 -0.242486,0.1039226 -0.04275,0.068805 -0.168775,-0.0019 -0.277126,-0.1385634 -0.104803,-0.1321917 -0.164615,-0.2698284 -0.138564,-0.3117677 0.02975,-0.047887 0.07877,-0.083866 0.138564,-0.1039225 z m -6.131431,0.069282 c -0.01551,0.00622 -0.0221,0.02216 -0.03464,0.034641 -0.05016,0.049927 -0.04993,0.1230466 0,0.1732043 0.04992,0.050161 0.123044,0.049928 0.173205,0 0.05015,-0.049925 0.04993,-0.1230454 0,-0.1732043 -0.03745,-0.037617 -0.09203,-0.053298 -0.138564,-0.034641 z m -7.032092,0.692817 c -0.03081,-0.013713 -0.07093,0.019016 -0.138564,0.034641 -0.08116,0.01875 -0.187965,0.040119 -0.346408,0.1039225 -0.283367,0.1141094 -0.616201,0.2238124 -0.727458,0.2424864 -0.111269,0.01868 -0.182322,0.05997 -0.138564,0.103922 0.120007,0.120562 -0.340246,0.55985 -0.692816,0.658177 l -0.311768,0.103922 0.346408,0 c 0.194945,-0.0037 0.364493,0.04165 0.346409,0.103923 -0.03796,0.130674 0.342069,0.208324 0.692817,0.138563 0.132021,-0.02626 0.495416,-0.236175 0.796739,-0.450331 0.611694,-0.434738 0.725044,-0.648258 0.450331,-0.727458 -0.101793,-0.02935 -0.185987,-0.1142939 -0.207845,-0.2078453 -0.01018,-0.043592 -0.03847,-0.090209 -0.06928,-0.1039225 z M 27.845134,10.12945 c -0.01551,0.0062 -0.05675,0.02216 -0.06928,0.03464 -0.05016,0.04993 -0.04993,0.123046 0,0.173204 0.04992,0.05016 0.157685,0.04993 0.207845,0 0.05015,-0.04993 0.04993,-0.123046 0,-0.173204 -0.03745,-0.03762 -0.09203,-0.0533 -0.138564,-0.03464 z m -12.193579,0.173204 c -0.109902,0.02568 -0.252027,0.11003 -0.346408,0.207845 -0.112096,0.116166 -0.06395,0.123269 0.173204,0.06928 0.166775,-0.03796 0.32261,-0.102376 0.346408,-0.173204 0.02761,-0.08222 -0.0633,-0.129599 -0.173204,-0.103923 z m 13.02496,0.450331 c -0.01551,0.0062 -0.0221,0.02216 -0.03464,0.03464 -0.05016,0.04993 -0.04993,0.123047 0,0.173204 0.04992,0.05016 0.123043,0.04993 0.173204,0 0.05015,-0.04993 0.04993,-0.123045 0,-0.173204 -0.03745,-0.03762 -0.09203,-0.0533 -0.138563,-0.03464 z m -8.452368,0.311768 c -0.08225,0.03229 -0.145546,0.164662 -0.06928,0.277127 0.05223,0.07701 0.0515,0.191221 0,0.242486 -0.05151,0.05127 -0.04993,0.123045 0,0.173204 0.04992,0.05016 0.155028,0.05257 0.207845,0 0.05282,-0.05257 0.04259,-0.112104 0,-0.138563 -0.04259,-0.02646 -0.01326,-0.146562 0.03464,-0.242486 0.04791,-0.09593 0.02123,-0.220989 -0.03464,-0.277127 -0.03539,-0.03555 -0.06955,-0.0361 -0.103923,-0.03464 -0.01289,5.46e-4 -0.02289,-0.0046 -0.03464,0 z m 1.732043,0.311768 c -0.103321,0.02773 -0.155628,0.190223 -0.03464,0.311767 0.07502,0.07537 0.140338,0.07403 0.207845,-0.03464 0.06752,-0.108673 0.0394,-0.174977 -0.06928,-0.242486 -0.04608,-0.02863 -0.06948,-0.04388 -0.103922,-0.03464 z m 5.71574,0.103922 c -0.103323,0.02773 -0.155626,0.190222 -0.03464,0.311768 0.07502,0.07537 0.140339,0.07403 0.207845,-0.03464 0.06752,-0.108675 0.0394,-0.20962 -0.06928,-0.277127 -0.04608,-0.02863 -0.06948,-0.0092 -0.103923,0 z m -5.992867,0.658176 c -0.04871,0.0217 -0.173977,0.139568 -0.311768,0.346409 -0.277512,0.416589 -0.34109,0.901913 -0.138563,0.969944 0.07265,0.0244 0.110286,0.116848 0.06928,0.207845 -0.0795,0.176392 0.272828,0.438707 0.519612,0.381049 0.0882,-0.02061 0.181865,0.06876 0.242486,0.242486 0.08084,0.23167 0.06393,0.36704 -0.103922,0.484972 -0.122649,0.08618 -0.193471,0.147255 -0.138564,0.138563 0.05492,-0.0087 0.05536,0.06237 0,0.173205 -0.08394,0.168056 -0.05508,0.218444 0.138564,0.173204 0.384856,-0.08992 0.478766,0.118405 0.138563,0.346408 -0.432981,0.290182 -0.385519,0.421026 0.06928,0.173205 0.202286,-0.110225 0.439499,-0.199817 0.519613,-0.207846 0.539559,-0.05408 0.802665,-0.265437 0.83138,-0.658176 0.01456,-0.199118 -0.04879,-0.271552 -0.173204,-0.242486 -0.195215,0.04561 -0.303677,-0.05247 -0.450331,-0.381049 -0.102633,-0.229968 -0.590603,-0.61729 -0.900662,-0.727458 -0.124239,-0.04415 -0.131044,-0.152007 -0.03464,-0.41569 0.122724,-0.335663 0.09307,-0.330002 -0.138564,-0.207845 -0.334632,0.176473 -0.434261,-0.0052 -0.242486,-0.41569 0.127294,-0.272511 0.166545,-0.408956 0.103923,-0.38105 z m -1.004585,0.484972 c -0.01548,0.0024 -0.04602,0.02531 -0.06928,0.03464 -0.01551,0.0062 -0.05674,-0.01248 -0.06928,0 -0.05016,0.04993 -0.04993,0.157687 0,0.207845 0.04992,0.05016 0.123043,0.04993 0.173204,0 0.05015,-0.04992 0.04993,-0.157687 0,-0.207845 -0.01872,-0.01881 -0.01916,-0.03701 -0.03464,-0.03464 z m 6.304635,0.06928 c -0.01548,0.0024 -0.04602,0.02531 -0.06928,0.03464 -0.01551,0.0062 -0.05674,-0.01248 -0.06928,0 -0.05016,0.04993 -0.04993,0.157688 0,0.207845 0.04992,0.05016 0.157685,0.04993 0.207845,0 0.05015,-0.04993 0.01529,-0.157688 -0.03464,-0.207845 -0.01872,-0.01881 -0.01916,-0.03701 -0.03464,-0.03464 z m -1.004585,0.138563 c -0.103321,0.02773 -0.155625,0.190223 -0.03464,0.311768 0.07502,0.07537 0.14034,0.03939 0.207846,-0.06928 0.06752,-0.108674 0.0394,-0.174979 -0.06928,-0.242486 -0.04608,-0.02863 -0.06948,-0.0092 -0.103923,0 z m -5.196127,0.242486 c -0.01548,0.0024 -0.04602,0.02531 -0.06928,0.03464 -0.01551,0.0062 -0.05674,-0.01248 -0.06928,0 -0.05016,0.04993 -0.04993,0.15769 0,0.207845 0.04992,0.05016 0.157686,0.04993 0.207846,0 0.05015,-0.04993 0.01529,-0.157687 -0.03464,-0.207845 -0.01872,-0.01881 -0.01916,-0.03701 -0.03464,-0.03464 z m 19.537439,0.38105 c 0.144206,-0.03369 0.256286,0.468669 0.138564,0.658176 -0.140188,0.225656 -0.245312,0.234789 -0.38105,0.03464 -0.111942,-0.165075 0.05195,-0.648301 0.242486,-0.692817 z m -2.390218,0.242486 c 0.03185,-0.0096 0.04313,0.0061 0.06928,0 0.183021,-0.04242 0.230112,0.0066 0.277127,0.207845 0.0449,0.192183 0.01822,0.259315 -0.103922,0.242486 -0.09623,-0.01325 -0.223962,0.06676 -0.277127,0.173204 -0.05316,0.106444 -0.0461,0.183973 0,0.173204 0.0461,-0.01077 0.04995,0.03857 0,0.138563 -0.06973,0.13963 -0.01676,0.240656 0.242486,0.415691 0.185645,0.125345 0.301722,0.272175 0.277126,0.311767 -0.0246,0.0396 0.03498,0.141559 0.103923,0.242486 0.116495,0.170545 0.119682,0.170764 0.207845,-0.03464 0.08778,-0.204544 0.105031,-0.205925 0.277127,-0.03464 0.159682,0.158926 0.153729,0.198474 -0.03464,0.242486 -0.30423,0.07108 -0.341846,0.262781 -0.06928,0.346408 0.124523,0.0382 0.210876,0.09314 0.173205,0.103923 -0.03766,0.01078 0.0028,0.217957 0.103922,0.450331 0.161903,0.372104 0.160562,0.415044 -0.03464,0.519612 -0.40884,0.219009 -0.703016,0.254145 -0.969943,0.06928 -0.251032,-0.173854 -0.268246,-0.207581 -0.207846,-0.727458 0.05293,-0.455408 0.0348,-0.569784 -0.103922,-0.588894 -0.227893,-0.03139 -0.922791,-1.101803 -0.900662,-1.385634 0.02142,-0.274601 0.547095,-0.738801 0.969944,-0.866021 z m -17.216503,0.484971 c -0.05754,0.01865 -0.07247,0.07559 -0.103922,0.138564 -0.04746,0.09502 -0.05327,0.174756 0,0.207845 0.05326,0.03309 -0.0091,0.139587 -0.138564,0.207845 -0.177748,0.09374 -0.185786,0.119538 -0.06928,0.207845 0.107199,0.08124 0.1048,0.172653 0.03464,0.242486 -0.08835,0.08795 -0.05825,0.541316 0.03464,0.519613 0.01932,-0.0045 0.226613,-0.165644 0.450331,-0.346409 0.340605,-0.275207 0.384581,-0.39199 0.346409,-0.727458 -0.03716,-0.326561 -0.08691,-0.405215 -0.311768,-0.450331 -0.100556,-0.02017 -0.184951,-0.01866 -0.242486,0 z M 4.6011239,15.949113 c -0.02214,-0.0036 -0.044845,0.01632 -0.069282,0.03464 -0.9900076,2.784936 -1.4212981,5.763238 -1.2124298,8.694853 0.055533,0.03782 0.118381,0.107689 0.1732043,0.207845 0.1177813,0.215175 0.1381449,0.222535 0.1039226,0.03464 -0.063742,-0.349967 0.3139692,-1.19093 0.5542536,-1.247071 0.4214232,-0.09846 0.536593,-0.261045 0.3464085,-0.450331 -0.1369806,-0.136332 -0.1657198,-0.221205 -0.069282,-0.484972 0.067787,-0.185412 0.218302,-0.359211 0.3117677,-0.381049 0.093464,-0.02184 0.3658753,-0.235487 0.6235353,-0.450331 0.3204198,-0.267174 0.5591595,-0.371946 0.7274579,-0.346408 0.141956,0.02154 0.1604821,0.0778 0.069282,0.103922 -0.2212372,0.06336 -0.498194,0.453316 -0.4503311,0.658176 0.03189,0.136495 0.08259,0.124103 0.242486,-0.103922 0.1101525,-0.157089 0.375682,-0.396084 0.5542535,-0.519613 0.1785711,-0.123529 0.332737,-0.281791 0.3464085,-0.381049 0.013672,-0.09926 0.067235,-0.162521 0.1385635,-0.138564 0.071324,0.02396 0.1168259,-0.01405 0.1039225,-0.06928 -0.05346,-0.22882 -0.1795171,-0.18585 -0.3810493,0.138564 -0.1722192,0.277229 -0.2592494,0.32062 -0.4156903,0.242486 -0.1069143,-0.0534 -0.1642706,-0.16229 -0.1385633,-0.242486 0.03487,-0.108785 -0.00518,-0.08912 -0.1039226,0.03464 -0.1043619,0.130796 -0.188056,0.120692 -0.4849719,-0.06928 -0.393497,-0.251766 -0.4164023,-0.36923 -0.069282,-0.450331 0.1157161,-0.02704 0.1626127,-0.139552 0.1385634,-0.242486 -0.066533,-0.284773 -0.7723461,0.05667 -1.0738663,0.519613 -0.1745648,0.268019 -0.2784027,0.375534 -0.3810494,0.311767 -0.2028149,-0.125995 0.566058,-1.220793 1.0045847,-1.420274 0.184462,-0.08391 0.5602378,-0.205685 0.8660212,-0.277127 0.3057832,-0.07144 0.678527,-0.207547 0.7967395,-0.311768 0.118213,-0.104222 0.3428695,-0.264822 0.5196128,-0.346408 0.278638,-0.128622 0.317577,-0.198213 0.2424859,-0.519613 C 7.4993008,17.983212 7.3525913,17.942863 6.88742,18.235409 6.6239294,18.401116 6.435144,18.44162 6.3678073,18.373972 6.241846,18.247425 6.5504321,17.902695 6.8527791,17.819719 7.0151127,17.775167 7.0172369,17.732755 6.88742,17.715796 6.7864358,17.702602 6.5559494,17.652578 6.3678073,17.577233 6.1796649,17.501886 6.0105511,17.469651 5.9867579,17.507951 5.9629631,17.546254 5.848878,17.467421 5.7096311,17.334747 5.5703852,17.202072 5.4932669,17.067704 5.5364268,17.05762 5.5795876,17.047535 5.465095,16.963652 5.2939409,16.849775 5.1227855,16.735897 4.9160992,16.497448 4.8436098,16.330162 4.7384525,16.087489 4.6730783,15.960824 4.6011239,15.949113 z M 26.4595,17.923641 c -0.103319,0.02773 -0.155625,0.190223 -0.03464,0.311768 0.07503,0.07537 0.14034,0.07403 0.207846,-0.03464 0.06752,-0.108674 0.0394,-0.174979 -0.06928,-0.242486 -0.04608,-0.02863 -0.06948,-0.04389 -0.103923,-0.03464 z m 0.138564,0.762099 c -0.07026,0.02121 -0.10543,0.122408 -0.06928,0.277127 0.04978,0.213069 0.124741,0.253054 0.242486,0.173204 0.08728,-0.05919 0.110079,-0.18606 0.06928,-0.277127 -0.06537,-0.1459 -0.172219,-0.19441 -0.242486,-0.173204 z m 5.196127,0.242486 c -0.01551,0.0062 -0.0221,0.02216 -0.03464,0.03464 -0.05016,0.04993 -0.04993,0.123047 0,0.173204 0.04992,0.05016 0.123045,0.04993 0.173205,0 0.05015,-0.04992 0.04993,-0.123047 0,-0.173204 -0.03745,-0.03762 -0.09203,-0.0533 -0.138564,-0.03464 z m 1.905247,0 c -0.05119,0.01161 -0.102939,0.03382 -0.138563,0.06928 -0.05635,0.05609 -0.08372,0.158553 -0.03464,0.207845 0.118349,0.118903 0.395629,0.02429 0.450331,-0.138564 0.03986,-0.118655 -0.123542,-0.173401 -0.277127,-0.138563 z m -3.602649,0.03464 c -0.02414,0.0024 -0.04602,0.02531 -0.06928,0.03464 -0.01551,0.0062 -0.0221,-0.01248 -0.03464,0 -0.05016,0.04993 -0.04993,0.157687 0,0.207845 0.04992,0.05016 0.123043,0.04993 0.173204,0 0.05015,-0.04992 0.04993,-0.157687 0,-0.207845 -0.01872,-0.01881 -0.04514,-0.03701 -0.06928,-0.03464 z m -4.641873,0.138563 c -0.01446,0.0027 -0.02079,0.02801 -0.03464,0.03464 -0.01847,0.0088 -0.05373,0.01875 -0.06928,0.03464 -0.06223,0.06355 -0.161649,0.126772 -0.207845,0.138563 -0.0462,0.01179 -0.04549,0.0575 -0.03464,0.103923 0.01085,0.04641 0.02656,0.103964 0.03464,0.138563 0.0081,0.0346 0.03804,-0.0021 0.103922,-0.06928 0.06589,-0.0672 0.163455,-0.119034 0.207846,-0.138564 0.04439,-0.01953 0.105768,-0.05346 0.138563,-0.06928 0.03278,-0.01582 0.01892,-0.08474 -0.03464,-0.138563 -0.03014,-0.03027 -0.06054,-0.0427 -0.103922,-0.03464 z m 5.785022,0.06928 c -0.01551,0.0062 -0.0221,0.02216 -0.03464,0.03464 -0.05016,0.04993 -0.04993,0.123047 0,0.173204 0.04992,0.05016 0.123044,0.04993 0.173204,0 0.05015,-0.04993 0.04993,-0.123047 0,-0.173204 -0.03745,-0.03762 -0.09203,-0.0533 -0.138563,-0.03464 z m -23.3825742,0.03464 c -0.1029462,0.03909 -0.2989851,0.21354 -0.4849719,0.484972 -0.3275936,0.478091 -0.3542777,0.57185 -0.1732042,0.727457 0.1991077,0.171107 0.4253205,0.103371 0.9353029,-0.242486 0.1261848,-0.08557 0.1754945,-0.07531 0.1385634,0.03464 -0.028972,0.08625 0.00382,0.250608 0.069282,0.346409 0.1105664,0.161808 0.112749,0.152453 0.2078451,-0.06928 0.065827,-0.153482 0.1415298,-0.205186 0.2078451,-0.138563 0.056723,0.05699 0.1576851,0.04993 0.2078451,0 0.050158,-0.04993 0.015289,-0.123047 -0.034641,-0.173205 -0.049926,-0.05016 -0.1182368,-0.05472 -0.1732043,0 C 8.69545,20.237583 8.677195,20.184893 8.688744,20.03673 8.714997,19.700018 8.2443311,19.468937 7.9266455,19.655684 7.6897388,19.794947 7.675257,19.787587 7.822723,19.51712 7.9607959,19.263883 7.9603101,19.166262 7.8573638,19.205353 z m 20.7152282,0.103922 c -0.05961,-0.02233 -0.145846,0.004 -0.277127,0.03464 -0.399835,0.09342 -0.428304,0.258442 -0.03464,0.346409 0.405884,0.0907 0.474511,0.04391 0.415691,-0.207845 -0.02045,-0.08752 -0.04431,-0.150872 -0.103923,-0.173205 z m 2.875191,0.38105 c -0.03872,0.01074 -0.05495,0.01158 -0.06928,0.03464 -0.02866,0.04613 0.05572,0.06724 0.173204,0.03464 0.12982,-0.03603 0.132796,-0.05433 0.03464,-0.06928 -0.04442,-0.0068 -0.09985,-0.01074 -0.138563,0 z m -6.651044,0.03464 c -0.02414,0.0024 -0.04602,0.02531 -0.06928,0.03464 -0.01551,0.0062 -0.0221,-0.01248 -0.03464,0 -0.05016,0.04993 -0.04993,0.157688 0,0.207845 0.04992,0.05016 0.123043,0.04993 0.173204,0 0.05015,-0.04993 0.04993,-0.157687 0,-0.207845 -0.01872,-0.01881 -0.04514,-0.03701 -0.06928,-0.03464 z m 2.944473,0.138564 c -0.01551,0.0062 -0.0221,0.02216 -0.03464,0.03464 -0.05016,0.04993 -0.04993,0.123046 0,0.173204 0.04992,0.05016 0.123043,0.04993 0.173204,0 0.05015,-0.04992 0.04993,-0.123047 0,-0.173204 -0.03745,-0.03762 -0.09203,-0.0533 -0.138563,-0.03464 z m -21.6505315,0.06928 c -0.070228,-0.0044 -0.1489571,0.01725 -0.2078451,0.03464 -0.03365,0.0099 -0.043615,0.05174 -0.069282,0.06928 -0.1547347,0.105745 -0.1622468,0.108608 0.069282,0.207845 0.2960391,0.126888 0.5301361,0.105648 0.5888944,-0.06928 0.038185,-0.113684 -0.1703654,-0.229335 -0.3810493,-0.242485 z M 28.399388,20.17529 c -0.01551,0.0062 -0.0221,0.02216 -0.03464,0.03464 -0.05016,0.04993 -0.04993,0.157689 0,0.207845 0.04992,0.05016 0.123044,0.04993 0.173204,0 0.05015,-0.04992 0.04993,-0.157687 0,-0.207845 -0.03745,-0.03762 -0.09203,-0.0533 -0.138563,-0.03464 z m -0.41569,0.242486 c -0.01551,0.0062 -0.0221,0.02216 -0.03464,0.03464 -0.05016,0.04993 -0.04993,0.123049 0,0.173205 0.04992,0.05016 0.123043,0.04993 0.173204,0 0.05015,-0.04993 0.04993,-0.123047 0,-0.173205 -0.03745,-0.03762 -0.09204,-0.0533 -0.138563,-0.03464 z m -20.0570525,0.03464 c -0.015511,0.0062 -0.022102,0.02216 -0.034641,0.03464 -0.050159,0.04993 -0.049929,0.123047 0,0.173204 0.049927,0.05016 0.1230447,0.04993 0.1732042,0 0.050158,-0.04993 0.049928,-0.123046 0,-0.173204 -0.037446,-0.03762 -0.092031,-0.0533 -0.1385634,-0.03464 z m 32.4238355,0.519613 c -0.01551,0.0062 -0.05674,0.02216 -0.06928,0.03464 -0.05016,0.04993 -0.04993,0.123048 0,0.173204 0.04992,0.05016 0.123042,0.04993 0.173205,0 0.05015,-0.04992 0.04993,-0.123046 0,-0.173204 -0.03745,-0.03762 -0.05739,-0.0533 -0.103923,-0.03464 z m -20.160975,2.320937 c -0.02414,0.0024 -0.04602,0.02531 -0.06928,0.03464 -0.01551,0.0062 -0.0221,0.02216 -0.03464,0.03464 -0.05016,0.04993 -0.04993,0.123047 0,0.173204 0.04992,0.05016 0.123044,0.04993 0.173204,0 0.05015,-0.04992 0.04993,-0.157686 0,-0.207845 -0.01872,-0.01881 -0.04514,-0.03701 -0.06928,-0.03464 z m 1.108508,1.281711 c -0.02414,0.0024 -0.04602,0.02531 -0.06928,0.03464 -0.01551,0.0062 -0.0221,-0.01248 -0.03464,0 -0.05016,0.04993 -0.04993,0.15769 0,0.207845 0.04992,0.05016 0.123043,0.04993 0.173204,0 0.05015,-0.04993 0.04993,-0.157687 0,-0.207845 -0.01872,-0.01881 -0.04514,-0.03701 -0.06928,-0.03464 z m -1.108508,0.138564 c -0.01551,0.0062 -0.0221,0.02216 -0.03464,0.03464 -0.05016,0.04993 -0.04993,0.123047 0,0.173204 0.04992,0.05016 0.123044,0.04993 0.173204,0 0.05015,-0.04992 0.04993,-0.123047 0,-0.173204 -0.03745,-0.03762 -0.09203,-0.0533 -0.138564,-0.03464 z m 0.588895,0.103922 c -0.02414,0.0024 -0.04602,0.02531 -0.06928,0.03464 -0.01551,0.0062 -0.0221,-0.01248 -0.03464,0 -0.05016,0.04993 -0.04993,0.157689 0,0.207845 0.04992,0.05016 0.123043,0.04993 0.173205,0 0.05015,-0.04992 0.04993,-0.157687 0,-0.207845 -0.01872,-0.01881 -0.04514,-0.03701 -0.06928,-0.03464 z m -0.484972,0.346409 c -0.01551,0.0062 -0.0221,0.02216 -0.03464,0.03464 -0.05016,0.04993 -0.04993,0.123047 0,0.173204 0.04992,0.05016 0.123044,0.04993 0.173204,0 0.05015,-0.04993 0.04993,-0.123047 0,-0.173204 -0.03745,-0.03762 -0.09204,-0.0533 -0.138563,-0.03464 z m 20.853792,0.346408 c -0.01551,0.0062 -0.0221,0.02216 -0.03464,0.03464 -0.05016,0.04993 -0.04993,0.123049 0,0.173205 0.04992,0.05016 0.123042,0.04993 0.173204,0 0.05015,-0.04993 0.04993,-0.123047 0,-0.173205 -0.03745,-0.03762 -0.09203,-0.0533 -0.138563,-0.03464 z M 3.423335,25.61391 c 0.00829,0.06901 -0.00903,0.138916 0,0.207845 0.00791,-0.01158 0.024264,-0.02431 0.034641,-0.03464 0.045761,-0.04555 0.015273,-0.101893 -0.034641,-0.173204 z m 3.3948033,0.692817 c -0.015511,0.0062 -0.056743,0.02216 -0.069282,0.03464 -0.050158,0.04993 -0.015288,0.123046 0.034641,0.173204 0.049927,0.05016 0.1230448,0.04993 0.1732042,0 0.050159,-0.04993 0.049929,-0.123045 0,-0.173204 -0.037446,-0.03762 -0.092032,-0.0533 -0.1385634,-0.03464 z m 13.0249597,2.875191 c -0.01551,0.0062 -0.05675,0.02216 -0.06928,0.03464 -0.05016,0.04993 -0.04993,0.157689 0,0.207845 0.04992,0.05016 0.157685,0.01529 0.207845,-0.03464 0.05015,-0.04993 0.01529,-0.123046 -0.03464,-0.173205 -0.03745,-0.03762 -0.05739,-0.0533 -0.103922,-0.03464 z m -0.727458,0.06928 c -0.01551,0.0062 -0.0221,0.02216 -0.03464,0.03464 -0.05016,0.04993 -0.04993,0.123047 0,0.173204 0.04992,0.05016 0.123043,0.04993 0.173204,0 0.05015,-0.04992 0.04993,-0.123046 0,-0.173204 -0.03745,-0.03762 -0.09203,-0.0533 -0.138563,-0.03464 z M 4.3239971,29.493685 c 0.028268,0.08171 0.039806,0.161071 0.069282,0.242486 0.050158,-0.04992 0.015288,-0.157687 -0.034641,-0.207845 -0.018723,-0.01881 -0.019158,-0.03701 -0.034641,-0.03464 z M 19.94702,29.632249 c -0.01551,0.0062 -0.05674,0.02216 -0.06928,0.03464 -0.05016,0.04993 -0.04993,0.157689 0,0.207845 0.04992,0.05016 0.157684,0.01529 0.207845,-0.03464 0.05015,-0.04993 0.04993,-0.123046 0,-0.173205 -0.03745,-0.03762 -0.09203,-0.0533 -0.138564,-0.03464 z M 4.5318422,29.805453 c -0.015511,0.0062 -0.022102,0.02216 -0.034641,0.03464 -0.02508,0.02496 -0.03467,0.03849 -0.034641,0.06928 0.00794,0.02123 -0.00802,0.04807 0,0.06928 0.006,0.0115 0.024655,0.02461 0.034641,0.03464 0.049927,0.05016 0.1230446,0.04993 0.1732042,0 0.050159,-0.04993 0.049928,-0.123046 0,-0.173204 -0.037446,-0.03762 -0.092032,-0.0533 -0.1385634,-0.03464 z m 0.2771268,0.41569 c -0.031356,5.92e-4 -0.046464,0.01193 -0.069282,0.03464 -0.036859,0.03669 -0.1161182,0.03382 -0.1732042,0 0.013098,0.03302 0.021339,0.07096 0.034641,0.103922 0.011843,0.0029 0.022801,0.02835 0.034641,0.03464 0.018944,0.01007 0.052534,0.01782 0.069282,0.03464 0.054431,0.05468 0.1576857,0.04993 0.2078451,0 0.050159,-0.04993 0.049929,-0.123046 0,-0.173204 -0.024963,-0.02508 -0.072567,-0.03523 -0.1039226,-0.03464 z m 0.5196128,0.103923 c -0.024144,0.0024 -0.046016,0.02531 -0.069282,0.03464 -0.015511,0.0062 -0.022101,-0.01248 -0.034641,0 -0.050158,0.04993 -0.049929,0.157688 0,0.207845 0.049928,0.05016 0.1230449,0.04993 0.1732043,0 0.050159,-0.04993 0.049928,-0.157687 0,-0.207845 -0.018723,-0.01881 -0.045138,-0.03701 -0.069282,-0.03464 z m 0.4156902,0.03464 c -0.015511,0.0062 -0.022102,0.02216 -0.034641,0.03464 -0.050159,0.04993 -0.049929,0.123048 0,0.173204 0.049927,0.05016 0.1230445,0.04993 0.1732043,0 0.050158,-0.04993 0.049928,-0.123045 0,-0.173204 -0.037446,-0.03762 -0.092031,-0.0533 -0.1385634,-0.03464 z m -0.1385634,0.38105 c -0.015511,0.0062 -0.056743,0.02216 -0.069282,0.03464 -0.050159,0.04993 -0.049929,0.123046 0,0.173204 0.049927,0.05016 0.1576858,0.04993 0.2078452,0 0.050158,-0.04993 0.049929,-0.123046 0,-0.173204 -0.037445,-0.03762 -0.092031,-0.0533 -0.1385634,-0.03464 z m 37.3774774,0.03464 c -0.01551,0.0062 -0.02211,0.02216 -0.03464,0.03464 -0.05016,0.04993 -0.04993,0.123048 0,0.173205 0.01498,0.01505 0.01673,0.02865 0.03464,0.03464 0.02628,-0.06664 0.04371,-0.140696 0.06928,-0.207846 -0.02541,-0.0075 -0.04465,-0.04452 -0.06928,-0.03464 z M 4.9475324,31.121805 c 0.046782,0.102272 0.089727,0.210102 0.1385634,0.311768 0.047026,-0.0358 0.085924,-0.06789 0.1039226,-0.103923 0.042079,-0.08425 -0.049936,-0.137426 -0.242486,-0.207845 z m 2.5980637,0.103923 c -0.1177559,0.03253 -0.1899299,0.15608 -0.1039225,0.242486 0.049068,0.04929 0.1532597,0.08203 0.2078451,0.06928 0.1575923,-0.03682 0.1786593,-0.263393 0.034641,-0.311767 -0.042882,-0.0144 -0.099311,-0.01084 -0.1385634,0 z M 6.6795749,31.32965 c -0.218704,-0.01239 -0.4855413,-0.0013 -0.6581761,0.03464 -0.1726351,0.03593 -0.2555948,0.09059 -0.2078452,0.138563 0.041731,0.04193 -0.00204,0.137343 -0.1039225,0.207846 -0.2852519,0.19739 0.4156718,0.135247 0.7967395,-0.06928 0.167746,-0.09004 0.3549472,-0.158967 0.4156902,-0.138564 0.060743,0.0204 0.1176681,-0.01045 0.1039226,-0.06928 -0.013746,-0.05883 -0.1645112,-0.09362 -0.3464085,-0.103923 z m 1.4202749,0 c -0.015511,0.0062 -0.022102,0.02216 -0.034641,0.03464 -0.050159,0.04993 -0.049929,0.123047 0,0.173204 0.049927,0.05016 0.1230446,0.04993 0.1732042,0 0.050157,-0.04993 0.049929,-0.123045 0,-0.173204 -0.037445,-0.03762 -0.092031,-0.0533 -0.1385633,-0.03464 z m 0.5542535,0 c -0.024143,0.0024 -0.046016,0.02531 -0.069282,0.03464 -0.015511,0.0062 -0.022102,-0.01248 -0.034641,0 -0.050159,0.04993 -0.049929,0.157689 0,0.207845 0.049926,0.05016 0.1230454,0.04993 0.1732042,0 0.050159,-0.04993 0.049927,-0.157686 0,-0.207845 -0.018723,-0.01881 -0.045138,-0.03701 -0.069282,-0.03464 z m 0.4156902,0.03464 c -0.015511,0.0062 -0.056742,0.02216 -0.069282,0.03464 -0.050158,0.04993 -0.049929,0.123046 0,0.173204 0.049926,0.05016 0.1576851,0.04993 0.2078451,0 0.050159,-0.04993 0.049928,-0.123046 0,-0.173204 -0.037445,-0.03762 -0.092032,-0.0533 -0.1385635,-0.03464 z m 20.1609745,0.03464 c -0.01551,0.0062 -0.0221,0.02216 -0.03464,0.03464 -0.05016,0.04993 -0.04993,0.123046 0,0.173204 0.04992,0.05016 0.123045,0.04993 0.173205,0 0.05015,-0.04993 0.04993,-0.123045 0,-0.173204 -0.03745,-0.03762 -0.09203,-0.0533 -0.138564,-0.03464 z m 13.336727,0.06928 c -0.01551,0.0062 -0.05674,0.02216 -0.06928,0.03464 -0.05016,0.04993 -0.04993,0.157689 0,0.207846 0.04416,0.04437 0.11843,0.0056 0.173204,-0.03464 0.0019,-0.0044 0.03272,0.0044 0.03464,0 0.02507,-0.02496 0.03467,-0.03849 0.03464,-0.06928 0.0043,-0.0098 -0.0042,-0.02485 0,-0.03464 -0.0053,-0.0212 -0.01716,-0.05173 -0.03464,-0.06928 -0.03745,-0.03762 -0.09203,-0.0533 -0.138564,-0.03464 z M 9.1737161,31.814622 c -0.01551,0.0062 -0.056742,0.02216 -0.069282,0.03464 -0.050159,0.04993 -0.049929,0.123046 0,0.173204 0.049927,0.05016 0.1576851,0.04993 0.2078451,0 0.050159,-0.04992 0.049928,-0.123046 0,-0.173204 -0.037447,-0.03762 -0.092032,-0.0533 -0.1385634,-0.03464 z m 19.9531299,0.06928 c -0.01551,0.0062 -0.0221,0.02216 -0.03464,0.03464 -0.05016,0.04993 -0.04993,0.123046 0,0.173204 0.04992,0.05016 0.123043,0.04993 0.173204,0 0.05015,-0.04992 0.04993,-0.123046 0,-0.173204 -0.03745,-0.03762 -0.09203,-0.0533 -0.138563,-0.03464 z m 9.734079,0.103922 c -0.01551,0.0062 -0.0221,0.02216 -0.03464,0.03464 -0.05016,0.04993 -0.04993,0.123048 0,0.173204 0.04992,0.05016 0.123044,0.04993 0.173204,0 0.05015,-0.04993 0.04993,-0.123046 0,-0.173204 -0.03745,-0.03762 -0.09204,-0.0533 -0.138563,-0.03464 z M 9.3815612,32.230312 c -0.015511,0.0062 -0.022101,0.02216 -0.034641,0.03464 -0.050159,0.04993 -0.080066,0.127568 -0.034641,0.173204 0.045425,0.04564 0.05468,0.118774 0,0.173205 -0.05468,0.05443 -0.049929,0.157688 0,0.207845 0.049927,0.05016 0.1230443,0.04993 0.1732043,0 0.050159,-0.04993 0.045424,-0.127571 0,-0.173204 -0.045425,-0.04564 -0.02004,-0.153417 0.034641,-0.207846 0.054682,-0.05443 0.049928,-0.123045 0,-0.173204 -0.037445,-0.03762 -0.092032,-0.0533 -0.1385634,-0.03464 z m 19.5720798,0.173205 c -0.02414,0.0024 -0.04602,0.02531 -0.06928,0.03464 -0.01551,0.0062 -0.0221,-0.01248 -0.03464,0 -0.05016,0.04993 -0.04993,0.157689 0,0.207846 0.04992,0.05016 0.123044,0.04993 0.173204,0 0.05015,-0.04993 0.04993,-0.157688 0,-0.207846 -0.01872,-0.01881 -0.04514,-0.03701 -0.06928,-0.03464 z m 9.907284,0.06928 c -0.01551,0.0062 -0.02211,0.02216 -0.03464,0.03464 -0.05016,0.04993 -0.04993,0.123048 0,0.173204 0.04992,0.05016 0.123043,0.04993 0.173204,0 0.05015,-0.04993 0.04993,-0.123046 0,-0.173204 -0.03745,-0.03762 -0.09204,-0.0533 -0.138563,-0.03464 z M 9.9358148,32.576721 c -0.01551,0.0062 -0.022101,0.02216 -0.034641,0.03464 -0.050159,0.04993 -0.049928,0.123047 0,0.173204 0.049927,0.05016 0.1230442,0.04993 0.1732042,0 0.05016,-0.04993 0.04993,-0.123046 0,-0.173204 -0.03745,-0.03762 -0.09203,-0.0533 -0.1385633,-0.03464 z m 29.1675962,0.41569 c -0.01551,0.0062 -0.0221,0.02216 -0.03464,0.03464 -0.05016,0.04993 -0.04993,0.123047 0,0.173204 0.04992,0.05016 0.123043,0.04993 0.173204,0 0.05015,-0.04993 0.04993,-0.123045 0,-0.173204 -0.03745,-0.03762 -0.09203,-0.0533 -0.138563,-0.03464 z m -29.7564907,0.06928 c -0.015511,0.0062 -0.0221,0.02216 -0.034641,0.03464 -0.050158,0.04992 -0.049929,0.123047 0,0.173204 0.049927,0.05016 0.1230443,0.04993 0.1732043,0 0.050159,-0.04993 0.049928,-0.123047 0,-0.173204 -0.037445,-0.03762 -0.092032,-0.0533 -0.1385635,-0.03464 z m -1.8706058,0.207845 c -0.015511,0.0062 -0.022102,0.02216 -0.034641,0.03464 -0.050159,0.04993 -0.049929,0.123047 0,0.173204 0.049927,0.05016 0.1230449,0.04993 0.1732042,0 0.050158,-0.04993 0.049927,-0.123047 0,-0.173204 -0.037445,-0.03762 -0.092031,-0.0533 -0.1385633,-0.03464 z m 0.4849718,0 c -0.015511,0.0062 -0.022102,0.02216 -0.034641,0.03464 -0.050158,0.04993 -0.049929,0.123047 0,0.173204 0.049926,0.05016 0.1230445,0.04993 0.1732043,0 0.050159,-0.04993 0.049928,-0.123046 0,-0.173204 -0.037445,-0.03762 -0.092031,-0.0533 -0.1385635,-0.03464 z m 20.8884327,0 c -0.01551,0.0062 -0.0221,0.02216 -0.03464,0.03464 -0.05016,0.04993 -0.04993,0.123046 0,0.173204 0.04992,0.05016 0.123044,0.04993 0.173204,0 0.05015,-0.04993 0.04993,-0.123046 0,-0.173204 -0.03745,-0.03762 -0.09204,-0.0533 -0.138563,-0.03464 z M 9.7626105,33.33882 c -0.01551,0.0062 -0.022102,0.02216 -0.034641,0.03464 -0.05016,0.04993 -0.049928,0.123047 0,0.173205 0.049927,0.05016 0.1230443,0.04993 0.1732042,0 0.050159,-0.04993 0.049928,-0.123046 0,-0.173205 -0.037445,-0.03762 -0.092031,-0.0533 -0.1385634,-0.03464 z m -2.6327046,0.277126 c -0.011596,0.02535 -0.022922,0.0624 -0.034641,0.138564 -0.02344,0.152327 -0.1151127,0.298195 -0.1732043,0.311767 -0.058089,0.01357 -0.057831,0.09819 0,0.207845 0.037907,0.07188 0.036771,0.121187 0.034641,0.173205 0.1198921,0.159417 0.2202305,0.328092 0.3464085,0.484972 l -0.034641,0.03464 c 2.5880694,3.823738 6.3096229,6.262504 10.3922549,7.447783 0.0048,-0.02593 -0.005,-0.04145 0,-0.06928 0.11617,-0.646322 0.103035,-0.978745 -0.06928,-1.732043 -0.148503,-0.649194 -0.160633,-0.95119 -0.06928,-1.039225 0.07149,-0.0689 0.232192,-0.446619 0.381049,-0.831381 0.357028,-0.922847 0.238931,-1.523477 -0.311767,-1.662761 -0.203891,-0.05157 -0.446117,-0.145804 -0.554254,-0.242486 -0.144609,-0.129294 -0.384565,-0.151229 -0.900662,-0.06928 -0.601931,0.09558 -0.762708,0.06313 -1.143148,-0.173205 -0.536221,-0.33311 -0.726276,-0.308921 -0.935303,0.138564 -0.112492,0.240822 -0.26959,0.356354 -0.484972,0.381049 -0.367202,0.0421 -0.409253,-0.142758 -0.06928,-0.311767 0.134717,-0.06697 0.246823,-0.236064 0.242486,-0.346409 -0.01167,-0.297185 -0.212908,-0.200256 -0.554253,0.277127 -0.166812,0.233291 -0.3349,0.409716 -0.38105,0.381049 -0.146133,-0.09078 0.355405,-1.193637 0.519613,-1.143148 0.08353,0.02568 0.01814,-0.06121 -0.138563,-0.173204 -0.156704,-0.111996 -0.280569,-0.234223 -0.277127,-0.277127 0.03567,-0.44469 -0.831471,-0.873118 -1.454916,-0.727458 -0.309956,0.07242 -0.501478,0.01208 -0.900662,-0.242486 -0.280892,-0.179128 -0.6781705,-0.407966 -0.8660214,-0.519612 -0.1878499,-0.11165 -0.3012945,-0.27446 -0.2771268,-0.346409 0.02894,-0.08616 -0.1550026,-0.06854 -0.5196128,0.06928 -0.3479393,0.131524 -0.5948615,0.16753 -0.6581762,0.103922 -0.055405,-0.05566 -0.137852,-0.06319 -0.2078451,-0.03464 -0.2161565,0.08817 -0.8231219,-0.05821 -0.8660212,-0.207845 -0.011178,-0.03899 -0.023045,-0.02535 -0.034641,0 z m -0.5196127,0.06928 c -0.032978,0.0084 -0.078206,0.06116 -0.1385634,0.138563 0.036293,0.05286 0.1016156,0.08595 0.1385634,0.138564 0.074449,-0.203623 0.056753,-0.291549 0,-0.277127 z m 33.4630608,0.381049 c -0.01551,0.0062 -0.0221,0.02216 -0.03464,0.03464 -0.05016,0.04993 -0.04993,0.123047 0,0.173204 0.04992,0.05016 0.123044,0.04993 0.173205,0 0.05015,-0.04992 0.04993,-0.123046 0,-0.173204 -0.03745,-0.03762 -0.09203,-0.0533 -0.138564,-0.03464 z m 0.450331,0.138564 c -0.02414,0.0024 -0.04602,0.02531 -0.06928,0.03464 -0.01551,0.0062 -0.0221,-0.01248 -0.03464,0 -0.05016,0.04993 -0.04993,0.157688 0,0.207845 0.04992,0.05016 0.123043,0.04993 0.173204,0 0.05015,-0.04992 0.04993,-0.157687 0,-0.207845 -0.01872,-0.01881 -0.04514,-0.03701 -0.06928,-0.03464 z m 0.346409,0.277127 c -0.01551,0.0062 -0.0221,0.02216 -0.03464,0.03464 -0.05016,0.04993 -0.04993,0.123047 0,0.173205 0.04992,0.05016 0.123044,0.04993 0.173204,0 0.0055,-0.0079 -0.0055,-0.02673 0,-0.03464 0.009,-0.01721 0.03466,-0.01617 0.03464,-0.03464 -2.8e-5,-0.03079 -0.0097,-0.07884 -0.03464,-0.103923 -0.03745,-0.03762 -0.09203,-0.0533 -0.138563,-0.03464 z" id="5" fill="url(#H)"/>
 <path d="M 25.15625,5.78125 C 24.391709,5.743825 23.599311,5.742222 22.8125,5.8125 c -0.01049,9.369e-4 -0.02076,-9.567e-4 -0.03125,0 -13.7714852,0.2193532 -22.22456336,18.18511 -13.5,29 0.00935,0.01158 0.021865,0.01968 0.03125,0.03125 7.917828,11.630184 27.760969,8.751806 31.84375,-4.75 0.004,-0.01308 0.02732,-0.01815 0.03125,-0.03125 l -0.03125,0 c 4.292835,-11.176304 -4.388771,-23.7128641 -16,-24.28125 z" transform="matrix(1.1085072,0,0,1.1085072,-2.6041729,-3.9347351)" id="6" fill="none" stroke="url(#F)" stroke-width="0.91"/>
 <path d="m 24.034641,1.9542094 c -0.44579,0.00786 -0.899053,0.029748 -1.350993,0.069282 -0.02381,0.00208 -0.04545,-0.00217 -0.06928,0 C 9.5829592,2.2555472 0.80198783,16.355772 3.9083069,28.177333 15.335902,18.481733 27.052216,11.213762 39.311256,8.8823794 35.520927,4.6374493 30.092252,1.8473488 24.034641,1.9542094 z" id="7" opacity="0.6" fill="url(#G)"/>
</svg>
